<svg width="52" height="54" viewBox="0 0 52 54" fill="none" xmlns="http://www.w3.org/2000/svg">
<path d="M26.468 1.38019C26.468 1.38019 25.8501 2.02161 26.0136 3.23509C26.177 4.44857 26.8414 6.13096 26.7516 7.29641C26.6618 8.46186 25.5881 11.3282 25.5881 11.3282L26.9235 13.2887L28.7378 11.8818C28.7378 11.8818 29.8768 8.18629 29.7321 6.71399C29.5874 5.24169 29.4639 1.71899 29.4639 1.71899L26.468 1.38019Z" fill="#433709"/>
<path d="M27.648 1.51835C27.675 2.22314 28.0101 5.13358 28.1368 6.41862C28.2815 7.89092 27.1425 11.5865 27.1425 11.5865L25.9435 12.2757L26.613 13.2585L28.4273 11.8516C28.4273 11.8516 29.5663 8.156 29.4216 6.6837C29.2769 5.2114 29.1534 1.6887 29.1534 1.6887L27.6497 1.51867L27.648 1.51835Z" fill="#261C02"/>
<path d="M29.4689 1.79281C29.4318 2.17666 28.7131 2.4232 27.8648 2.34087C27.0155 2.25924 26.3583 1.88025 26.3947 1.49537C26.4318 1.11152 27.1505 0.864976 27.9988 0.94731C28.8481 1.02894 29.5053 1.40793 29.4689 1.79281Z" fill="#FCD3B3"/>
<path d="M25.8829 9.80517C25.8829 9.80517 20.0175 9.83963 15.562 17.6728C11.1074 25.5052 11.8303 32.0794 14.8745 37.7356C17.9176 43.3925 21.4061 46.1459 26.7984 46.5447C32.1897 46.9442 40.93 38.5931 40.9208 32.8154C40.9092 25.3846 38.8951 18.6502 36.7991 15.5138C34.7032 12.3775 31.7826 10.9026 30.2754 10.3089C28.77 9.71549 27.1546 9.61707 27.1546 9.61707L25.8839 9.80447L25.8829 9.80517Z" fill="#4B5B19"/>
<path d="M22.7737 9.07841C22.7737 9.07841 23.7437 10.0245 24.0821 10.1886L24.4194 10.3535L23.7585 11.6453C23.7585 11.6453 22.8458 10.8252 22.8607 10.7986C22.8755 10.7719 22.7727 9.07911 22.7727 9.07911L22.7737 9.07841Z" fill="#6B7B3E"/>
<path d="M22.7726 9.07852C22.4727 10.1185 21.9859 10.8686 21.9859 10.8686L23.7581 11.6465L22.7732 9.07954L22.7726 9.07852Z" fill="#4B5B19"/>
<path d="M20.692 9.80023C20.692 9.80023 21.8563 10.494 22.2237 10.5753L22.5911 10.6566L22.2496 12.067C22.2496 12.067 21.171 11.4814 21.1793 11.4517C21.1876 11.4221 20.693 9.79954 20.693 9.79954L20.692 9.80023Z" fill="#6B7B3E"/>
<path d="M20.691 9.80054C20.6413 10.8817 20.3439 11.7249 20.3439 11.7249L22.2486 12.0673L20.691 9.80054Z" fill="#4B5B19"/>
<path d="M19.0839 10.9167C19.0839 10.9167 20.3432 11.4196 20.7173 11.4424L21.0931 11.4655L20.9768 12.9115C20.9768 12.9115 19.8202 12.5021 19.8233 12.4714C19.8265 12.4408 19.0849 10.916 19.0849 10.916L19.0839 10.9167Z" fill="#6B7B3E"/>
<path d="M19.0833 10.9168C19.2041 11.9928 19.0409 12.8722 19.0409 12.8722L20.9752 12.9124L19.0823 10.9175L19.0833 10.9168Z" fill="#4B5B19"/>
<path d="M14.6133 16.0534C14.6133 16.0534 15.9679 16.1104 16.3291 16.0084L16.6912 15.9057L17.0615 17.3084C17.0615 17.3084 15.834 17.3058 15.8272 17.276C15.8204 17.2461 14.615 16.0537 14.615 16.0537L14.6133 16.0534Z" fill="#6B7B3E"/>
<path d="M14.6129 16.0533C15.0832 17.0278 15.2217 17.9117 15.2217 17.9117L17.0605 17.3073L14.614 16.0526L14.6129 16.0533Z" fill="#4B5B19"/>
<path d="M15.7754 14.2126C15.7754 14.2126 17.13 14.2695 17.4911 14.1676L17.8533 14.0649L18.2236 15.4676C18.2236 15.4676 16.9961 15.465 16.9893 15.4352C16.9825 15.4053 15.7771 14.2129 15.7771 14.2129L15.7754 14.2126Z" fill="#6B7B3E"/>
<path d="M15.7751 14.2124C16.2453 15.1869 16.3838 16.0708 16.3838 16.0708L18.2226 15.4664L15.7761 14.2117L15.7751 14.2124Z" fill="#4B5B19"/>
<path d="M17.3008 12.4411C17.3008 12.4411 18.6293 12.7109 19.0028 12.6666L19.3762 12.6222L19.5209 14.066C19.5209 14.066 18.3086 13.87 18.3073 13.8394C18.306 13.8088 17.3025 12.4414 17.3025 12.4414L17.3008 12.4411Z" fill="#6B7B3E"/>
<path d="M17.3 12.4412C17.6113 13.4774 17.6075 14.3727 17.6075 14.3727L19.5184 14.0658L17.3 12.4412Z" fill="#4B5B19"/>
<path d="M24.6906 8.45876C24.6906 8.45876 25.5703 9.49038 25.8914 9.68425L26.2132 9.87914L25.4365 11.1044C25.4365 11.1044 24.6034 10.203 24.6207 10.1777C24.638 10.1525 24.6909 8.45704 24.6909 8.45704L24.6906 8.45876Z" fill="#6B7B3E"/>
<path d="M24.6898 8.45869C24.296 9.46656 23.7417 10.1682 23.7417 10.1682L25.4346 11.105L24.6891 8.45767L24.6898 8.45869Z" fill="#4B5B19"/>
<path d="M11.4316 24.5417C11.4316 24.5417 12.7125 24.0983 13.0108 23.8711L13.3102 23.6431L14.1683 24.8125C14.1683 24.8125 13.025 25.2597 13.0083 25.2351C12.9915 25.2105 11.4316 24.5417 11.4316 24.5417Z" fill="#6B7B3E"/>
<path d="M11.4316 24.5417C12.2259 25.2759 12.6783 26.048 12.6783 26.048L14.1683 24.8125L11.4316 24.5417Z" fill="#4B5B19"/>
<path d="M11.8164 22.6232C11.8164 22.6232 13.0973 22.1798 13.3956 21.9526L13.6949 21.7247L14.553 22.8941C14.553 22.8941 13.4098 23.3412 13.393 23.3166C13.3763 23.292 11.8164 22.6232 11.8164 22.6232Z" fill="#6B7B3E"/>
<path d="M11.8164 22.6232C12.6106 23.3575 13.063 24.1296 13.063 24.1296L14.553 22.8941L11.8164 22.6232Z" fill="#4B5B19"/>
<path d="M12.4502 20.3608C12.4502 20.3608 13.7829 20.1102 14.1109 19.9287L14.44 19.7466L15.1176 21.0299C15.1176 21.0299 13.9214 21.3046 13.9077 21.2779C13.895 21.2506 12.4492 20.3615 12.4492 20.3615L12.4502 20.3608Z" fill="#6B7B3E"/>
<path d="M12.4494 20.3609C13.1285 21.2037 13.4628 22.0337 13.4628 22.0337L15.1167 21.0301L12.4494 20.3609Z" fill="#4B5B19"/>
<path d="M13.457 18.2155C13.457 18.2155 14.8071 18.0895 15.1505 17.9396L15.495 17.789L16.0512 19.1296C16.0512 19.1296 14.8342 19.2923 14.8236 19.2636C14.813 19.2348 13.457 18.2155 13.457 18.2155Z" fill="#6B7B3E"/>
<path d="M13.4564 18.2156C14.0536 19.1186 14.3097 19.9749 14.3097 19.9749L16.0498 19.1286L13.4564 18.2156Z" fill="#4B5B19"/>
<path d="M11.1934 26.6271C11.1934 26.6271 12.4742 26.1837 12.7725 25.9565L13.0719 25.7286L13.93 26.898C13.93 26.898 12.7867 27.3452 12.77 27.3206C12.7532 27.296 11.1934 26.6271 11.1934 26.6271Z" fill="#6B7B3E"/>
<path d="M11.1934 26.6271C11.9876 27.3614 12.44 28.1335 12.44 28.1335L13.93 26.898L11.1934 26.6271Z" fill="#4B5B19"/>
<path d="M10.8749 28.9076C10.8749 28.9076 12.0185 28.1812 12.2567 27.8899L12.4949 27.5986L13.6 28.5382C13.6 28.5382 12.591 29.2375 12.5681 29.2171C12.5452 29.1967 10.8742 28.9066 10.8742 28.9066L10.8749 28.9076Z" fill="#6B7B3E"/>
<path d="M10.875 28.9079C11.8175 29.4391 12.4365 30.0857 12.4365 30.0857L13.6008 28.5395L10.876 28.9072L10.875 28.9079Z" fill="#4B5B19"/>
<path d="M11.1355 31.5548C11.1355 31.5548 12.059 30.5626 12.2148 30.2209L12.3724 29.8795L13.6791 30.5093C13.6791 30.5093 12.8795 31.4411 12.8528 31.4262C12.8252 31.412 11.1355 31.5548 11.1355 31.5548Z" fill="#6B7B3E"/>
<path d="M11.1367 31.5548C12.183 31.8309 12.9446 32.2993 12.9446 32.2993L13.6803 30.5094L11.1367 31.5548Z" fill="#4B5B19"/>
<path d="M11.6775 33.1003C11.6775 33.1003 12.7346 32.2513 12.9388 31.9366L13.1431 31.622L14.3446 32.4344C14.3446 32.4344 13.4189 33.2405 13.3946 33.2225C13.3704 33.2045 11.6765 33.101 11.6765 33.101L11.6775 33.1003Z" fill="#6B7B3E"/>
<path d="M11.6788 33.1005C12.6745 33.525 13.3599 34.0994 13.3599 34.0994L14.3458 32.4345L11.6777 33.1012L11.6788 33.1005Z" fill="#4B5B19"/>
<path d="M12.2416 35.4267C12.2416 35.4267 13.0736 34.3573 13.1997 34.0029L13.3258 33.6484L14.6833 34.161C14.6833 34.161 13.9692 35.159 13.9402 35.1473C13.9123 35.1348 12.2409 35.4256 12.2409 35.4256L12.2416 35.4267Z" fill="#6B7B3E"/>
<path d="M12.2413 35.4267C13.3079 35.6093 14.1074 36.01 14.1074 36.01L14.6826 34.1628L12.2402 35.4274L12.2413 35.4267Z" fill="#4B5B19"/>
<path d="M13.1226 37.6415C13.1226 37.6415 13.6577 36.3963 13.6905 36.0214L13.7232 35.6465L15.1658 35.7996C15.1658 35.7996 14.727 36.9462 14.6967 36.9414C14.6664 36.9365 13.123 37.6398 13.123 37.6398L13.1226 37.6415Z" fill="#6B7B3E"/>
<path d="M13.1235 37.6416C14.2022 37.549 15.0766 37.7335 15.0766 37.7335L15.1656 35.8004L13.1228 37.6406L13.1235 37.6416Z" fill="#4B5B19"/>
<path d="M13.9296 39.3354C13.9296 39.3354 14.6982 38.2192 14.8039 37.8591L14.9097 37.499L16.2946 37.933C16.2946 37.933 15.6391 38.9706 15.6098 38.9606C15.5804 38.9506 13.9293 39.3371 13.9293 39.3371L13.9296 39.3354Z" fill="#6B7B3E"/>
<path d="M13.9297 39.3356C15.0053 39.4566 15.8264 39.8095 15.8264 39.8095L16.294 37.9321L13.9297 39.3356Z" fill="#4B5B19"/>
<path d="M15.0225 41.3619C15.0225 41.3619 15.5137 40.0986 15.533 39.7238L15.5524 39.3491L16.9993 39.4512C16.9993 39.4512 16.6005 40.6125 16.5709 40.6087C16.5403 40.6056 15.0225 41.3619 15.0225 41.3619Z" fill="#6B7B3E"/>
<path d="M15.0222 41.3616C16.0964 41.2315 16.9774 41.3861 16.9774 41.3861L16.999 39.4509L15.0222 41.3616Z" fill="#4B5B19"/>
<path d="M16.8022 43.3386C16.8022 43.3386 16.9577 41.9919 16.8811 41.624L16.8045 41.2561L18.2312 40.9894C18.2312 40.9894 18.1392 42.2133 18.109 42.2174C18.0788 42.2215 16.8015 43.3376 16.8015 43.3376L16.8022 43.3386Z" fill="#6B7B3E"/>
<path d="M16.8023 43.3384C17.8094 42.9404 18.6998 42.8665 18.6998 42.8665L18.2313 40.9891L16.8023 43.3384Z" fill="#4B5B19"/>
<path d="M18.1532 44.2639C18.1532 44.2639 18.5016 42.9538 18.4789 42.5791L18.4573 42.2038L19.9078 42.146C19.9078 42.146 19.6404 43.3438 19.6091 43.3441C19.5789 43.3437 18.1532 44.2639 18.1532 44.2639Z" fill="#6B7B3E"/>
<path d="M18.1527 44.2638C19.2064 44.0156 20.0981 44.0714 20.0981 44.0714L19.9055 42.1455L18.152 44.2627L18.1527 44.2638Z" fill="#4B5B19"/>
<path d="M19.9888 45.8018C19.9888 45.8018 20.0262 44.447 19.9177 44.0873L19.8092 43.7276L21.2068 43.3367C21.2068 43.3367 21.2222 44.564 21.193 44.5719C21.1632 44.5787 19.9895 45.8028 19.9895 45.8028L19.9888 45.8018Z" fill="#6B7B3E"/>
<path d="M19.9901 45.8018C20.9576 45.3169 21.8386 45.1654 21.8386 45.1654L21.2075 43.3357L19.9901 45.8018Z" fill="#4B5B19"/>
<path d="M40.6235 20.1278C40.6235 20.1278 39.6684 21.089 39.5001 21.4257L39.3329 21.7617L38.0478 21.0887C38.0478 21.0887 38.8779 20.1841 38.9035 20.1997C38.9302 20.2146 40.6235 20.1278 40.6235 20.1278Z" fill="#6B7B3E"/>
<path d="M40.6239 20.128C39.5866 19.8188 38.8415 19.3241 38.8415 19.3241L38.0482 21.0889L40.6249 20.1273L40.6239 20.128Z" fill="#4B5B19"/>
<path d="M39.7543 17.8054C39.7543 17.8054 39.1193 19.0031 39.057 19.3742L38.9939 19.7442L37.5691 19.4739C37.5691 19.4739 38.0994 18.3671 38.1294 18.3736C38.1594 18.3802 39.7543 17.8054 39.7543 17.8054Z" fill="#6B7B3E"/>
<path d="M39.7536 17.8052C38.6709 17.8105 37.8137 17.5543 37.8137 17.5543L37.5666 19.4735L39.7518 17.8049L39.7536 17.8052Z" fill="#4B5B19"/>
<path d="M38.6809 15.7767C38.6809 15.7767 38.2894 17.0742 38.2987 17.449L38.3086 17.8248L36.8576 17.8334C36.8576 17.8334 37.166 16.6451 37.1952 16.6462C37.2255 16.6466 38.6802 15.7757 38.6802 15.7757L38.6809 15.7767Z" fill="#6B7B3E"/>
<path d="M38.6805 15.7767C37.6192 15.9895 36.7296 15.9038 36.7296 15.9038L36.8569 17.8351L38.6805 15.7767Z" fill="#4B5B19"/>
<path d="M37.8148 17.5778C37.8148 17.5778 37.4233 18.8752 37.4315 19.2507L37.4414 19.6266L35.9905 19.6352C35.9905 19.6352 36.2988 18.4469 36.3281 18.448C36.3583 18.4484 37.813 17.5775 37.813 17.5775L37.8148 17.5778Z" fill="#6B7B3E"/>
<path d="M37.8153 17.578C36.754 17.7908 35.8644 17.7051 35.8644 17.7051L35.9917 19.6364L37.8153 17.578Z" fill="#4B5B19"/>
<path d="M37.9945 19.3674C37.9945 19.3674 37.603 20.6648 37.6112 21.0403L37.6211 21.4161L36.1701 21.4247C36.1701 21.4247 36.4785 20.2365 36.5077 20.2376C36.538 20.2379 37.9927 19.367 37.9927 19.367L37.9945 19.3674Z" fill="#6B7B3E"/>
<path d="M37.995 19.3675C36.9337 19.5803 36.0441 19.4946 36.0441 19.4946L36.1713 21.4259L37.995 19.3675Z" fill="#4B5B19"/>
<path d="M38.3206 20.9328C38.3206 20.9328 37.9291 22.2302 37.9373 22.6057L37.9473 22.9815L36.4963 22.9902C36.4963 22.9902 36.8046 21.8019 36.8349 21.8023C36.8652 21.8027 38.3199 20.9318 38.3199 20.9318L38.3206 20.9328Z" fill="#6B7B3E"/>
<path d="M38.3211 20.9329C37.2598 21.1458 36.3702 21.0601 36.3702 21.0601L36.4975 22.9913L38.3211 20.9329Z" fill="#4B5B19"/>
<path d="M37.0374 15.734C37.0374 15.734 36.6459 17.0315 36.6541 17.407L36.6641 17.7828L35.2131 17.7914C35.2131 17.7914 35.5215 16.6032 35.5517 16.6035C35.582 16.6039 37.0367 15.733 37.0367 15.733L37.0374 15.734Z" fill="#6B7B3E"/>
<path d="M37.0379 15.7342C35.9766 15.947 35.0871 15.8613 35.0871 15.8613L35.2143 17.7926L37.0379 15.7342Z" fill="#4B5B19"/>
<path d="M35.8909 14.1813C35.8909 14.1813 35.4994 15.4788 35.5076 15.8543L35.5176 16.2301L34.0666 16.2387C34.0666 16.2387 34.375 15.0504 34.4052 15.0508C34.4355 15.0512 35.8902 14.1803 35.8902 14.1803L35.8909 14.1813Z" fill="#6B7B3E"/>
<path d="M35.8915 14.1815C34.8301 14.3943 33.9406 14.3086 33.9406 14.3086L34.0678 16.2399L35.8915 14.1815Z" fill="#4B5B19"/>
<path d="M37.6892 14.1829C37.6892 14.1829 37.0494 15.378 36.9853 15.7487L36.9206 16.1183L35.496 15.8419C35.496 15.8419 36.0311 14.7377 36.0611 14.7443C36.0911 14.7509 37.6892 14.1829 37.6892 14.1829Z" fill="#6B7B3E"/>
<path d="M37.6887 14.1829C36.606 14.1838 35.7504 13.9233 35.7504 13.9233L35.4955 15.8419L37.6887 14.1829Z" fill="#4B5B19"/>
<path d="M36.3753 12.2935C36.3753 12.2935 36.0286 13.6039 36.0513 13.9785L36.0739 14.3532L34.6238 14.4138C34.6238 14.4138 34.8894 13.2156 34.9207 13.2153C34.951 13.2157 36.3753 12.2935 36.3753 12.2935Z" fill="#6B7B3E"/>
<path d="M36.3755 12.2934C35.3231 12.5436 34.4304 12.4886 34.4304 12.4886L34.6257 14.414L36.3755 12.2934Z" fill="#4B5B19"/>
<path d="M34.3849 10.5269C34.3849 10.5269 34.3812 11.8828 34.4983 12.2396L34.6153 12.5965L33.2273 13.0213C33.2273 13.0213 33.1814 11.7953 33.2116 11.7868C33.2407 11.7789 34.3849 10.5269 34.3849 10.5269Z" fill="#6B7B3E"/>
<path d="M34.3851 10.5271C33.4292 11.0357 32.5522 11.2085 32.5522 11.2085L33.2275 13.0215L34.3851 10.5271Z" fill="#4B5B19"/>
<path d="M32.9387 9.75992C32.9387 9.75992 32.7388 11.1008 32.8034 11.471L32.868 11.8411L31.4332 12.0607C31.4332 12.0607 31.5655 10.8408 31.5957 10.8368C31.626 10.8327 32.9387 9.75992 32.9387 9.75992Z" fill="#6B7B3E"/>
<path d="M32.9387 9.75987C31.9199 10.1253 31.0264 10.1683 31.0264 10.1683L31.4333 12.0607L32.9387 9.75987Z" fill="#4B5B19"/>
<path d="M30.8436 8.68856C30.8436 8.68856 30.9588 10.0384 31.1064 10.385L31.2543 10.7298L29.9095 11.2753C29.9095 11.2753 29.7566 10.0576 29.7854 10.047C29.8142 10.0364 30.8436 8.68856 30.8436 8.68856Z" fill="#6B7B3E"/>
<path d="M30.8435 8.68825C29.9363 9.27923 29.0779 9.52786 29.0779 9.52786L29.9104 11.2743L30.8445 8.68755L30.8435 8.68825Z" fill="#4B5B19"/>
<path d="M41.4951 36.9939C41.4951 36.9939 40.1488 37.1518 39.8082 37.3103L39.4676 37.4688L38.8803 36.1419C38.8803 36.1419 40.0928 35.9506 40.1044 35.9787C40.1161 36.0068 41.4951 36.9939 41.4951 36.9939Z" fill="#6B7B3E"/>
<path d="M41.4957 36.9937C40.877 36.1053 40.601 35.2551 40.601 35.2551L38.8809 36.1418L41.4957 36.9937Z" fill="#4B5B19"/>
<path d="M42.1137 34.5647C42.1137 34.5647 40.8396 35.0289 40.5455 35.2623L40.2506 35.4947L39.373 34.3385C39.373 34.3385 40.5082 33.8729 40.526 33.8968C40.5434 33.9224 42.114 34.5629 42.114 34.5629L42.1137 34.5647Z" fill="#6B7B3E"/>
<path d="M42.1127 34.5647C41.3062 33.8432 40.8415 33.0795 40.8415 33.0795L39.3727 34.3396L42.1127 34.5647Z" fill="#4B5B19"/>
<path d="M42.4911 32.0536C42.4911 32.0536 41.3765 32.8248 41.1501 33.1245L40.9237 33.4243L39.7825 32.5288C39.7825 32.5288 40.7633 31.7902 40.7862 31.8106C40.8101 31.8303 42.4911 32.0536 42.4911 32.0536Z" fill="#6B7B3E"/>
<path d="M42.4901 32.0535C41.527 31.5603 40.8838 30.9376 40.8838 30.9376L39.7816 32.5286L42.4901 32.0535Z" fill="#4B5B19"/>
<path d="M42.5876 30.0822C42.5876 30.0822 41.3434 30.6191 41.0622 30.8692L40.7809 31.1193L39.8379 30.0168C39.8379 30.0168 40.9445 29.485 40.963 29.5099C40.9818 29.5331 42.5862 30.0846 42.5862 30.0846L42.5876 30.0822Z" fill="#6B7B3E"/>
<path d="M42.5866 30.0819C41.7396 29.409 41.2305 28.6726 41.2305 28.6726L39.8372 30.0147L42.5859 30.0809L42.5866 30.0819Z" fill="#4B5B19"/>
<path d="M40.987 29.621C40.987 29.621 39.7428 30.1579 39.4616 30.408L39.1813 30.6574L38.2383 29.5548C38.2383 29.5548 39.3449 29.0231 39.3634 29.048C39.3822 29.0712 40.9866 29.6227 40.9866 29.6227L40.987 29.621Z" fill="#6B7B3E"/>
<path d="M40.987 29.621C40.1393 28.9471 39.6309 28.2116 39.6309 28.2116L38.2376 29.5538L40.987 29.621Z" fill="#4B5B19"/>
<path d="M39.6677 28.2086C39.6677 28.2086 38.4235 28.7455 38.1423 28.9956L37.861 29.2457L36.918 28.1432C36.918 28.1432 38.0246 27.6115 38.0431 27.6364C38.0619 27.6596 39.6663 28.2111 39.6663 28.2111L39.6677 28.2086Z" fill="#6B7B3E"/>
<path d="M39.6666 28.2084C38.8197 27.5355 38.3106 26.799 38.3106 26.799L36.9173 28.1412L39.6659 28.2073L39.6666 28.2084Z" fill="#4B5B19"/>
<path d="M41.4391 31.3898C41.4391 31.3898 40.195 31.9267 39.9137 32.1768L39.6325 32.4269L38.6895 31.3244C38.6895 31.3244 39.7961 30.7926 39.8145 30.8176C39.833 30.8425 41.4378 31.3922 41.4378 31.3922L41.4391 31.3898Z" fill="#6B7B3E"/>
<path d="M41.439 31.3897C40.5921 30.7169 40.084 29.9797 40.084 29.9797L38.6907 31.3219L41.4394 31.388L41.439 31.3897Z" fill="#4B5B19"/>
<path d="M40.901 33.5424C40.901 33.5424 39.6569 34.0793 39.3756 34.3294L39.0954 34.5787L38.1523 33.4762C38.1523 33.4762 39.259 32.9445 39.2775 32.9694C39.2963 32.9926 40.9007 33.5441 40.9007 33.5441L40.901 33.5424Z" fill="#6B7B3E"/>
<path d="M40.9 33.5421C40.0524 32.8682 39.5449 32.1321 39.5449 32.1321L38.1516 33.4742L40.901 33.5414L40.9 33.5421Z" fill="#4B5B19"/>
<path d="M40.5974 35.5368C40.5974 35.5368 39.3532 36.0737 39.072 36.3238L38.7907 36.5739L37.8477 35.4713C37.8477 35.4713 38.9543 34.9396 38.9728 34.9645C38.9916 34.9877 40.596 35.5392 40.596 35.5392L40.5974 35.5368Z" fill="#6B7B3E"/>
<path d="M40.5973 35.5367C39.7503 34.8638 39.2422 34.1267 39.2422 34.1267L37.8489 35.4689L40.5976 35.535L40.5973 35.5367Z" fill="#4B5B19"/>
<path d="M42.4071 27.8727C42.4071 27.8727 41.3201 28.6821 41.1048 28.9893L40.8894 29.2966L39.7174 28.4415C39.7174 28.4415 40.6716 27.6685 40.6956 27.6882C40.7188 27.7069 42.4081 27.872 42.4081 27.872L42.4071 27.8727Z" fill="#6B7B3E"/>
<path d="M42.4066 27.8728C41.4273 27.4131 40.7627 26.8141 40.7627 26.8141L39.7168 28.4417L42.4076 27.8721L42.4066 27.8728Z" fill="#4B5B19"/>
<path d="M42.2836 25.8064C42.2836 25.8064 41.4367 26.8649 41.3057 27.2166L41.1748 27.5684L39.8244 27.0374C39.8244 27.0374 40.5526 26.0493 40.5806 26.0617C40.6086 26.0742 42.2836 25.8064 42.2836 25.8064Z" fill="#6B7B3E"/>
<path d="M42.2836 25.8065C41.2196 25.6101 40.4258 25.1981 40.4258 25.1981L39.8261 27.0379L42.2854 25.8068L42.2836 25.8065Z" fill="#4B5B19"/>
<path d="M41.7209 24.2422C41.7209 24.2422 40.7307 25.1673 40.5496 25.4962L40.3692 25.8261L39.1101 25.1054C39.1101 25.1054 39.9726 24.2328 39.9989 24.2494C40.0245 24.265 41.7209 24.2422 41.7209 24.2422Z" fill="#6B7B3E"/>
<path d="M41.721 24.2422C40.6957 23.8934 39.9699 23.372 39.9699 23.372L39.1102 25.1054L41.721 24.2422Z" fill="#4B5B19"/>
<path d="M40.9843 21.9655C40.9843 21.9655 40.2331 23.0939 40.1349 23.4564L40.035 23.8185L38.6438 23.4083C38.6438 23.4083 39.2816 22.3602 39.3103 22.3692C39.3396 22.3792 40.9843 21.9655 40.9843 21.9655Z" fill="#6B7B3E"/>
<path d="M40.9841 21.9654C39.9069 21.862 39.0798 21.5222 39.0798 21.5222L38.6436 23.4082L40.9841 21.9654Z" fill="#4B5B19"/>
<path d="M40.0041 39.2228C40.0041 39.2228 38.6661 39.0074 38.2952 39.0665L37.9244 39.1255L37.7212 37.6886C37.7212 37.6886 38.9402 37.8349 38.9426 37.8648C38.9456 37.8958 40.0044 39.221 40.0044 39.221L40.0041 39.2228Z" fill="#6B7B3E"/>
<path d="M40.0039 39.2226C39.6508 38.1998 39.6178 37.3056 39.6178 37.3056L37.7207 37.6901L40.0039 39.2226Z" fill="#4B5B19"/>
<path d="M39.9606 22.323C39.9606 22.323 38.9094 23.1785 38.7066 23.4952L38.5037 23.8119L37.2964 23.0065C37.2964 23.0065 38.2169 22.1949 38.2422 22.2122C38.2675 22.2295 39.9606 22.323 39.9606 22.323Z" fill="#6B7B3E"/>
<path d="M39.9597 22.3229C38.9608 21.905 38.2721 21.3344 38.2721 21.3344L37.2965 23.0057L39.9597 22.3229Z" fill="#4B5B19"/>
<path d="M39.3796 20.0011C39.3796 20.0011 38.5539 21.0752 38.4302 21.4311L38.3058 21.7858L36.945 21.2815C36.945 21.2815 37.6528 20.2787 37.6818 20.2905C37.7101 20.3012 39.3786 20.0018 39.3786 20.0018L39.3796 20.0011Z" fill="#6B7B3E"/>
<path d="M39.38 20.0011C38.3121 19.8254 37.5099 19.4296 37.5099 19.4296L36.9464 21.2808L39.38 20.0011Z" fill="#4B5B19"/>
<path d="M39.0424 39.1865C39.0424 39.1865 37.6868 39.2007 37.3317 39.3226L36.9766 39.4444L36.5336 38.0628C36.5336 38.0628 37.7591 38.0007 37.768 38.0292C37.7758 38.0583 39.0435 39.1858 39.0435 39.1858L39.0424 39.1865Z" fill="#6B7B3E"/>
<path d="M39.0428 39.1864C38.5212 38.2379 38.3374 37.3623 38.3374 37.3623L36.5332 38.0617L39.0431 39.1847L39.0428 39.1864Z" fill="#4B5B19"/>
<path d="M39.9133 36.8372C39.9133 36.8372 38.5983 37.1643 38.2801 37.3646L37.9618 37.5648L37.2121 36.3231C37.2121 36.3231 38.39 35.9798 38.4048 36.0058C38.4195 36.0318 39.9133 36.8372 39.9133 36.8372Z" fill="#6B7B3E"/>
<path d="M39.9119 36.8368C39.185 36.0341 38.8048 35.2249 38.8048 35.2249L37.2107 36.3228L39.9119 36.8368Z" fill="#4B5B19"/>
<path d="M40.555 34.38C40.555 34.38 39.3646 35.0289 39.1083 35.3024L38.8511 35.5767L37.8105 34.5646C37.8105 34.5646 38.8636 33.9343 38.8844 33.9561C38.9053 33.9779 40.5543 34.379 40.5543 34.379L40.555 34.38Z" fill="#6B7B3E"/>
<path d="M40.5537 34.3799C39.6487 33.787 39.0747 33.1007 39.0747 33.1007L37.8099 34.5655L40.5537 34.3799Z" fill="#4B5B19"/>
<path d="M40.8944 32.6495C40.8944 32.6495 39.6008 33.052 39.2945 33.2697L38.9888 33.4884L38.168 32.2921C38.168 32.2921 39.324 31.8813 39.3414 31.9069C39.3589 31.9325 40.8944 32.6495 40.8944 32.6495Z" fill="#6B7B3E"/>
<path d="M40.8945 32.6493C40.1237 31.89 39.6963 31.1039 39.6963 31.1039L38.168 32.292L40.8945 32.6493Z" fill="#4B5B19"/>
<path d="M40.9481 30.4327C40.9481 30.4327 39.7819 31.1236 39.5347 31.406L39.2881 31.6895L38.2129 30.7145C38.2129 30.7145 39.2435 30.047 39.2654 30.0681C39.2873 30.0892 40.9491 30.432 40.9491 30.432L40.9481 30.4327Z" fill="#6B7B3E"/>
<path d="M40.9474 30.4327C40.0221 29.8717 39.4246 29.2059 39.4246 29.2059L38.2122 30.7145L40.9474 30.4327Z" fill="#4B5B19"/>
<path d="M41.0086 28.1451C41.0086 28.1451 40.0542 29.1073 39.8876 29.4443L39.7204 29.7803L38.4339 29.1098C38.4339 29.1098 39.2617 28.2039 39.2883 28.2187C39.3149 28.2336 41.0086 28.1451 41.0086 28.1451Z" fill="#6B7B3E"/>
<path d="M41.009 28.1453C39.9717 27.8362 39.2253 27.3439 39.2253 27.3439L38.4336 29.1089L41.009 28.1453Z" fill="#4B5B19"/>
<path d="M40.6154 26.5315C40.6154 26.5315 39.5319 27.3461 39.318 27.6554L39.1034 27.9636L37.9276 27.1141C37.9276 27.1141 38.878 26.3377 38.9023 26.3557C38.9265 26.3736 40.6154 26.5315 40.6154 26.5315Z" fill="#6B7B3E"/>
<path d="M40.6147 26.5313C39.6327 26.0764 38.9657 25.4805 38.9657 25.4805L37.9268 27.1139L40.6136 26.532L40.6147 26.5313Z" fill="#4B5B19"/>
<path d="M40.1229 24.1877C40.1229 24.1877 39.2577 25.2302 39.1198 25.5806L38.983 25.9304L37.6426 25.3746C37.6426 25.3746 38.3888 24.3996 38.4158 24.4128C38.4438 24.4252 40.1236 24.1887 40.1236 24.1887L40.1229 24.1877Z" fill="#6B7B3E"/>
<path d="M40.1224 24.1878C39.0613 23.9714 38.2753 23.5466 38.2753 23.5466L37.6421 25.3747L40.1224 24.1878Z" fill="#4B5B19"/>
<path d="M37.3205 41.2449C37.3205 41.2449 36.0127 40.8889 35.6377 40.9088L35.2627 40.9287L35.2128 39.4789C35.2128 39.4789 36.4093 39.7531 36.4089 39.7834C36.4085 39.8136 37.3198 41.2439 37.3198 41.2439L37.3205 41.2449Z" fill="#6B7B3E"/>
<path d="M37.3206 41.2447C37.0779 40.1902 37.1392 39.2978 37.1392 39.2978L35.2129 39.4787L37.3206 41.2447Z" fill="#4B5B19"/>
<path d="M37.3567 19.2733C37.3567 19.2733 36.4099 20.2423 36.244 20.5803L36.0792 20.9176L34.7884 20.2561C34.7884 20.2561 35.6102 19.3437 35.6368 19.3585C35.6635 19.3734 37.356 19.2723 37.356 19.2723L37.3567 19.2733Z" fill="#6B7B3E"/>
<path d="M37.3565 19.2731C36.3169 18.9715 35.5668 18.4848 35.5668 18.4848L34.7883 20.2559L37.3565 19.2731Z" fill="#4B5B19"/>
<path d="M36.5153 17.0324C36.5153 17.0324 35.8184 18.1943 35.7354 18.5614L35.6534 18.9278L34.2446 18.5821C34.2446 18.5821 34.8344 17.5052 34.863 17.5142C34.8927 17.5225 36.516 17.0334 36.516 17.0334L36.5153 17.0324Z" fill="#6B7B3E"/>
<path d="M36.516 17.0322C35.4355 16.979 34.593 16.6782 34.593 16.6782L34.2436 18.5816L36.5167 17.0332L36.516 17.0322Z" fill="#4B5B19"/>
<path d="M38.3727 36.1319C38.3727 36.1319 37.0279 36.3008 36.6884 36.4631L36.3498 36.6247L35.7509 35.3027C35.7509 35.3027 36.9619 35.1004 36.9736 35.1285C36.9852 35.1566 38.3727 36.1319 38.3727 36.1319Z" fill="#6B7B3E"/>
<path d="M38.3725 36.1321C37.7457 35.2493 37.4631 34.4006 37.4631 34.4006L35.75 35.3019L38.3718 36.1311L38.3725 36.1321Z" fill="#4B5B19"/>
<path d="M38.969 33.6991C38.969 33.6991 37.6992 34.174 37.4064 34.4095L37.1137 34.6449L36.2266 33.4967C36.2266 33.4967 37.3575 33.0205 37.3759 33.0454C37.3934 33.071 38.969 33.6991 38.969 33.6991Z" fill="#6B7B3E"/>
<path d="M38.968 33.6988C38.1547 32.985 37.6832 32.2245 37.6832 32.2245L36.2255 33.4964L38.968 33.6988Z" fill="#4B5B19"/>
<path d="M39.3251 31.1838C39.3251 31.1838 38.2168 31.9642 37.9935 32.2663L37.7703 32.5685L36.622 31.6823C36.622 31.6823 37.5961 30.9362 37.6193 30.9549C37.6433 30.9746 39.3258 31.1848 39.3258 31.1848L39.3251 31.1838Z" fill="#6B7B3E"/>
<path d="M39.3238 31.1836C38.3567 30.6976 37.7088 30.0813 37.7088 30.0813L36.62 31.6811L39.3238 31.1836Z" fill="#4B5B19"/>
<path d="M39.465 29.4266C39.465 29.4266 38.2251 29.9741 37.9463 30.2255L37.6674 30.477L36.7148 29.3825C36.7148 29.3825 37.8169 28.8418 37.8364 28.866C37.8552 28.8892 39.465 29.4266 39.465 29.4266Z" fill="#6B7B3E"/>
<path d="M39.4649 29.4266C38.6122 28.7607 38.0976 28.0294 38.0976 28.0294L36.7154 29.3835L39.4649 29.4266Z" fill="#4B5B19"/>
<path d="M39.266 27.2176C39.266 27.2176 38.186 28.0373 37.9731 28.3458L37.7598 28.6561L36.5807 27.8105C36.5807 27.8105 37.5283 27.0299 37.5515 27.0486C37.5748 27.0673 39.265 27.2183 39.265 27.2183L39.266 27.2176Z" fill="#6B7B3E"/>
<path d="M39.2648 27.2176C38.2811 26.7669 37.6111 26.1731 37.6111 26.1731L36.5794 27.8105L39.2648 27.2176Z" fill="#4B5B19"/>
<path d="M39.0641 24.9375C39.0641 24.9375 38.2266 26.0031 38.098 26.3563L37.9695 26.7094L36.6151 26.1902C36.6151 26.1902 37.3346 25.1959 37.3626 25.2083C37.3906 25.2208 39.0631 24.9382 39.0631 24.9382L39.0641 24.9375Z" fill="#6B7B3E"/>
<path d="M39.0643 24.9373C37.9987 24.7495 37.2008 24.3448 37.2008 24.3448L36.6163 26.1893L39.0643 24.9373Z" fill="#4B5B19"/>
<path d="M38.4882 23.3785C38.4882 23.3785 37.5053 24.3121 37.3273 24.6433L37.1493 24.9746L35.8838 24.2643C35.8838 24.2643 36.7397 23.3842 36.7653 23.3998C36.7909 23.4154 38.4872 23.3792 38.4872 23.3792L38.4882 23.3785Z" fill="#6B7B3E"/>
<path d="M38.4876 23.3786C37.4606 23.0384 36.7294 22.5222 36.7294 22.5222L35.8842 24.2637L38.4876 23.3786Z" fill="#4B5B19"/>
<path d="M37.7336 21.1079C37.7336 21.1079 36.9927 22.2427 36.8962 22.6055L36.7998 22.9683L35.4046 22.5698C35.4046 22.5698 36.0338 21.5156 36.0631 21.5256C36.0918 21.5346 37.7336 21.1079 37.7336 21.1079Z" fill="#6B7B3E"/>
<path d="M37.7327 21.1079C36.6546 21.0141 35.8245 20.6808 35.8245 20.6808L35.4038 22.5698L37.7327 21.1079Z" fill="#4B5B19"/>
<path d="M36.8984 38.3738C36.8984 38.3738 35.5591 38.1698 35.1876 38.2323L34.8178 38.2952L34.6027 36.8604C34.6027 36.8604 35.8226 36.9971 35.8259 37.0263C35.83 37.0565 36.8984 38.3738 36.8984 38.3738Z" fill="#6B7B3E"/>
<path d="M36.8983 38.3737C36.5366 37.3538 36.4954 36.4607 36.4954 36.4607L34.6016 36.861L36.8973 38.3744L36.8983 38.3737Z" fill="#4B5B19"/>
<path d="M36.2063 18.5399C36.2063 18.5399 35.2595 19.5089 35.0936 19.8469L34.9288 20.1842L33.638 19.5227C33.638 19.5227 34.4598 18.6103 34.4865 18.6251C34.5131 18.64 36.2056 18.5388 36.2056 18.5388L36.2063 18.5399Z" fill="#6B7B3E"/>
<path d="M36.2062 18.5397C35.1666 18.2381 34.4164 17.7514 34.4164 17.7514L33.6379 19.5225L36.2062 18.5397Z" fill="#4B5B19"/>
<path d="M35.3629 16.3C35.3629 16.3 34.666 17.4618 34.583 17.8289L34.5011 18.1954L33.0923 17.8497C33.0923 17.8497 33.6821 16.7728 33.7107 16.7818C33.7404 16.7901 35.3636 16.301 35.3636 16.301L35.3629 16.3Z" fill="#6B7B3E"/>
<path d="M35.3637 16.2998C34.2832 16.2466 33.4406 15.9458 33.4406 15.9458L33.0913 17.8491L35.3644 16.3008L35.3637 16.2998Z" fill="#4B5B19"/>
<path d="M37.2204 35.3975C37.2204 35.3975 35.8756 35.5664 35.536 35.7287L35.1975 35.8903L34.5986 34.5683C34.5986 34.5683 35.8096 34.3661 35.8212 34.3941C35.8329 34.4222 37.2204 35.3975 37.2204 35.3975Z" fill="#6B7B3E"/>
<path d="M37.2202 35.3978C36.5933 34.515 36.3107 33.6662 36.3107 33.6662L34.5977 34.5675L37.2195 35.3967L37.2202 35.3978Z" fill="#4B5B19"/>
<path d="M37.8167 32.9647C37.8167 32.9647 36.5468 33.4397 36.2541 33.6751L35.9613 33.9105L35.0742 32.7624C35.0742 32.7624 36.2051 32.2861 36.2236 32.311C36.2411 32.3366 37.8167 32.9647 37.8167 32.9647Z" fill="#6B7B3E"/>
<path d="M37.8157 32.9644C37.0024 32.2506 36.5308 31.4901 36.5308 31.4901L35.0732 32.7621L37.8157 32.9644Z" fill="#4B5B19"/>
<path d="M38.1727 30.4504C38.1727 30.4504 37.0645 31.2308 36.8412 31.5329L36.6179 31.8351L35.4696 30.9489C35.4696 30.9489 36.4438 30.2028 36.467 30.2215C36.4909 30.2412 38.1734 30.4514 38.1734 30.4514L38.1727 30.4504Z" fill="#6B7B3E"/>
<path d="M38.1715 30.4502C37.2043 29.9643 36.5564 29.3479 36.5564 29.3479L35.4677 30.9477L38.1715 30.4502Z" fill="#4B5B19"/>
<path d="M38.3127 28.6927C38.3127 28.6927 37.0728 29.2402 36.7939 29.4916L36.5151 29.7431L35.5625 28.6486C35.5625 28.6486 36.6646 28.1079 36.6841 28.1322C36.7029 28.1554 38.3127 28.6927 38.3127 28.6927Z" fill="#6B7B3E"/>
<path d="M38.3126 28.6927C37.4598 28.0268 36.9452 27.2956 36.9452 27.2956L35.5631 28.6497L38.3126 28.6927Z" fill="#4B5B19"/>
<path d="M38.1137 26.4846C38.1137 26.4846 37.0336 27.3043 36.8207 27.6129L36.6075 27.9232L35.4283 27.0776C35.4283 27.0776 36.376 26.297 36.3992 26.3157C36.4235 26.3337 38.1126 26.4853 38.1126 26.4853L38.1137 26.4846Z" fill="#6B7B3E"/>
<path d="M38.1125 26.4847C37.1288 26.034 36.4587 25.4401 36.4587 25.4401L35.4271 27.0776L38.1125 26.4847Z" fill="#4B5B19"/>
<path d="M37.0458 31.7536C37.0458 31.7536 35.9375 32.534 35.7142 32.8361L35.491 33.1383L34.3427 32.2521C34.3427 32.2521 35.3168 31.506 35.3401 31.5247C35.364 31.5444 37.0465 31.7546 37.0465 31.7546L37.0458 31.7536Z" fill="#6B7B3E"/>
<path d="M37.0445 31.7534C36.0774 31.2675 35.4295 30.6511 35.4295 30.6511L34.3407 32.2509L37.0445 31.7534Z" fill="#4B5B19"/>
<path d="M35.5595 33.3264C35.5595 33.3264 34.4512 34.1068 34.2279 34.4089L34.0046 34.711L32.8563 33.8248C32.8563 33.8248 33.8305 33.0788 33.8537 33.0975C33.8776 33.1172 35.5602 33.3274 35.5602 33.3274L35.5595 33.3264Z" fill="#6B7B3E"/>
<path d="M35.5582 33.3262C34.591 32.8402 33.9431 32.2238 33.9431 32.2238L32.8544 33.8237L35.5582 33.3262Z" fill="#4B5B19"/>
<path d="M37.1857 29.9959C37.1857 29.9959 35.9458 30.5434 35.667 30.7949L35.3882 31.0463L34.4355 29.9518C34.4355 29.9518 35.5376 29.4112 35.5571 29.4354C35.5759 29.4586 37.1857 29.9959 37.1857 29.9959Z" fill="#6B7B3E"/>
<path d="M37.1856 29.9959C36.3329 29.33 35.8183 28.5988 35.8183 28.5988L34.4361 29.9529L37.1856 29.9959Z" fill="#4B5B19"/>
<path d="M36.9867 27.7884C36.9867 27.7884 35.9067 28.6081 35.6938 28.9166L35.4805 29.2269L34.3014 28.3813C34.3014 28.3813 35.249 27.6007 35.2722 27.6194C35.2955 27.6381 36.9857 27.7891 36.9857 27.7891L36.9867 27.7884Z" fill="#6B7B3E"/>
<path d="M36.9855 27.7884C36.0018 27.3377 35.3318 26.7439 35.3318 26.7439L34.2994 28.3803L36.9848 27.7874L36.9855 27.7884Z" fill="#4B5B19"/>
<path d="M37.9125 24.2047C37.9125 24.2047 37.075 25.2703 36.9464 25.6234L36.8179 25.9765L35.4627 25.4563C35.4627 25.4563 36.1823 24.462 36.2103 24.4745C36.2383 24.4869 37.9107 24.2044 37.9107 24.2044L37.9125 24.2047Z" fill="#6B7B3E"/>
<path d="M37.9139 24.2049C36.8483 24.0171 36.0504 23.6123 36.0504 23.6123L35.4659 25.4568L37.9139 24.2049Z" fill="#4B5B19"/>
<path d="M37.3367 22.6463C37.3367 22.6463 36.3538 23.5799 36.1769 23.9104L35.999 24.2417L34.7334 23.5314C34.7334 23.5314 35.5893 22.6513 35.6149 22.6669C35.6405 22.6825 37.3367 22.6463 37.3367 22.6463Z" fill="#6B7B3E"/>
<path d="M37.3371 22.6467C36.3102 22.3065 35.579 21.7903 35.579 21.7903L34.7338 23.5318L37.3371 22.6467Z" fill="#4B5B19"/>
<path d="M36.5812 20.3755C36.5812 20.3755 35.8403 21.5103 35.7439 21.8731L35.6474 22.2359L34.2522 21.8374C34.2522 21.8374 34.8814 20.7832 34.9108 20.7932C34.9394 20.8022 36.5812 20.3755 36.5812 20.3755Z" fill="#6B7B3E"/>
<path d="M36.5804 20.3754C35.5022 20.2817 34.6721 19.9484 34.6721 19.9484L34.2514 21.8373L36.5804 20.3754Z" fill="#4B5B19"/>
<path d="M35.746 37.6409C35.746 37.6409 34.4068 37.4369 34.0353 37.4994L33.6655 37.5623L33.4503 36.1275C33.4503 36.1275 34.6702 36.2642 34.6736 36.2934C34.6777 36.3236 35.746 37.6409 35.746 37.6409Z" fill="#6B7B3E"/>
<path d="M35.7469 37.641C35.3852 36.6211 35.345 35.7273 35.345 35.7273L33.4512 36.1276L35.7469 37.641Z" fill="#4B5B19"/>
<path d="M24.7285 47.5699C24.7285 47.5699 24.0102 46.4208 23.722 46.1806L23.4328 45.941L24.3817 44.8429C24.3817 44.8429 25.0728 45.8575 25.0528 45.8787C25.0316 45.9006 24.7302 47.5703 24.7302 47.5703L24.7285 47.5699Z" fill="#6B7B3E"/>
<path d="M24.7294 47.5699C25.2679 46.6314 25.9187 46.0186 25.9187 46.0186L24.3816 44.8436L24.729 47.5716L24.7294 47.5699Z" fill="#4B5B19"/>
<path d="M27.1012 47.6353C27.1012 47.6353 26.1369 46.6822 25.7999 46.5157L25.4629 46.3492L26.1328 45.0617C26.1328 45.0617 27.0397 45.8887 27.0249 45.9153C27.01 45.942 27.1012 47.6353 27.1012 47.6353Z" fill="#6B7B3E"/>
<path d="M27.102 47.6354C27.4095 46.5978 27.9011 45.8504 27.9011 45.8504L26.1347 45.0611L27.1031 47.6347L27.102 47.6354Z" fill="#4B5B19"/>
<path d="M29.2449 47.3306C29.2449 47.3306 28.0715 46.652 27.7031 46.5759L27.3357 46.4991L27.6576 45.084C27.6576 45.084 28.7443 45.6551 28.736 45.6848C28.7276 45.7144 29.2442 47.3295 29.2442 47.3295L29.2449 47.3306Z" fill="#6B7B3E"/>
<path d="M29.2458 47.3304C29.2804 46.2491 29.5677 45.4022 29.5677 45.4022L27.6582 45.0856L29.2448 47.3311L29.2458 47.3304Z" fill="#4B5B19"/>
<path d="M30.9264 47.1888C30.9264 47.1888 29.7449 46.5248 29.3758 46.4521L29.0067 46.3794L29.3124 44.9604C29.3124 44.9604 30.4052 45.5184 30.3986 45.5484C30.3913 45.5773 30.9257 47.1878 30.9257 47.1878L30.9264 47.1888Z" fill="#6B7B3E"/>
<path d="M30.9258 47.1889C30.948 46.1071 31.2253 45.2565 31.2253 45.2565L29.3125 44.9616L30.9258 47.1889Z" fill="#4B5B19"/>
<path d="M34.3226 45.3809C34.3226 45.3809 33.1259 44.7452 32.7552 44.6812L32.3852 44.6181L32.6572 43.1936C32.6572 43.1936 33.7627 43.7263 33.7561 43.7563C33.7495 43.7863 34.3223 45.3826 34.3223 45.3826L34.3226 45.3809Z" fill="#6B7B3E"/>
<path d="M34.3214 45.3811C34.3178 44.2988 34.5758 43.4419 34.5758 43.4419L32.6562 43.192L34.3214 45.3811Z" fill="#4B5B19"/>
<path d="M32.9554 46.4659C32.9554 46.4659 31.7588 45.8302 31.3881 45.7661L31.018 45.7031L31.291 44.2779C31.291 44.2779 32.3965 44.8106 32.39 44.8406C32.3834 44.8706 32.9561 46.4669 32.9561 46.4669L32.9554 46.4659Z" fill="#6B7B3E"/>
<path d="M32.9542 46.466C32.9506 45.3837 33.2086 44.5268 33.2086 44.5268L31.2891 44.277L32.9542 46.466Z" fill="#4B5B19"/>
<path d="M36.1601 43.8968C36.1601 43.8968 34.8415 43.5843 34.4669 43.6159L34.093 43.6485L33.9964 42.2004C33.9964 42.2004 35.2011 42.4361 35.2025 42.4666C35.2038 42.4972 36.1608 43.8978 36.1608 43.8978L36.1601 43.8968Z" fill="#6B7B3E"/>
<path d="M36.1598 43.8972C35.8835 42.8506 35.9156 41.9571 35.9156 41.9571L33.9961 42.2008L36.1598 43.8972Z" fill="#4B5B19"/>
<path d="M37.5077 42.3665C37.5077 42.3665 36.1685 42.1625 35.797 42.225L35.4272 42.2878L35.212 40.8531C35.212 40.8531 36.4319 40.9898 36.4353 41.019C36.4394 41.0492 37.5077 42.3665 37.5077 42.3665Z" fill="#6B7B3E"/>
<path d="M37.5086 42.3666C37.1469 41.3467 37.1067 40.4528 37.1067 40.4528L35.2129 40.8532L37.5086 42.3666Z" fill="#4B5B19"/>
<path d="M38.7858 40.9358C38.7858 40.9358 37.4442 40.7394 37.0748 40.805L36.7047 40.8695L36.4813 39.4358C36.4813 39.4358 37.7018 39.5647 37.7059 39.5949C37.7099 39.6251 38.7868 40.9351 38.7868 40.9351L38.7858 40.9358Z" fill="#6B7B3E"/>
<path d="M38.7869 40.9356C38.4195 39.9182 38.373 39.0241 38.373 39.0241L36.4824 39.4357L38.7869 40.9356Z" fill="#4B5B19"/>
<path d="M22.2194 46.9524C22.2194 46.9524 21.9128 45.6324 21.7167 45.3114L21.5205 44.9904L22.7731 44.2587C22.7731 44.2587 23.0992 45.4423 23.0715 45.4567C23.0448 45.4704 22.2177 46.9521 22.2177 46.9521L22.2194 46.9524Z" fill="#6B7B3E"/>
<path d="M22.2185 46.9526C23.032 46.2394 23.8465 45.8691 23.8465 45.8691L22.7732 44.2582L22.2188 46.9509L22.2185 46.9526Z" fill="#4B5B19"/>
<path d="M27.1094 6.54361L28.4603 6.85066L28.4761 6.22627L27.1094 6.54361Z" fill="#261C02"/>
<path d="M26.5964 3.55635C26.5964 3.55635 27.2258 3.86581 27.8657 3.85151C28.5063 3.83824 28.4528 3.5791 28.4528 3.5791L28.3731 3.14275C28.3731 3.14275 28.1052 3.41233 27.707 3.493C27.3078 3.57437 26.5957 3.55533 26.5957 3.55533L26.5964 3.55635Z" fill="#261C02"/>
<path d="M27.0847 5.78585C27.0847 5.78585 27.7141 6.09528 28.354 6.08099C28.9946 6.06772 28.9411 5.80859 28.9411 5.80859L28.8614 5.37225C28.8614 5.37225 28.5934 5.64182 28.1953 5.72249C27.7961 5.80386 27.084 5.78482 27.084 5.78482L27.0847 5.78585Z" fill="#261C02"/>
<path d="M32.6781 44.9922C32.6781 44.9922 31.4814 44.3566 31.1107 44.2925L30.7407 44.2295L31.0126 42.8049C31.0126 42.8049 32.1182 43.3377 32.1116 43.3677C32.105 43.3976 32.6778 44.994 32.6778 44.994L32.6781 44.9922Z" fill="#6B7B3E"/>
<path d="M32.6769 44.9924C32.6733 43.9101 32.9313 43.0532 32.9313 43.0532L31.0117 42.8034L32.6769 44.9924Z" fill="#4B5B19"/>
<path d="M31.1762 45.6841C31.1762 45.6841 29.9795 45.0484 29.6088 44.9844L29.2387 44.9214L29.5107 43.4968C29.5107 43.4968 30.6162 44.0296 30.6096 44.0595C30.6031 44.0895 31.1758 45.6858 31.1758 45.6858L31.1762 45.6841Z" fill="#6B7B3E"/>
<path d="M31.1749 45.6843C31.1714 44.602 31.4293 43.7451 31.4293 43.7451L29.5098 43.4953L31.1742 45.6833L31.1749 45.6843Z" fill="#4B5B19"/>
<path d="M29.4379 46.0245C29.4379 46.0245 28.2412 45.3888 27.8705 45.3247L27.5005 45.2617L27.7724 43.8372C27.7724 43.8372 28.8779 44.3699 28.8714 44.3999C28.8648 44.4299 29.4375 46.0262 29.4375 46.0262L29.4379 46.0245Z" fill="#6B7B3E"/>
<path d="M29.4366 46.0246C29.433 44.9423 29.691 44.0854 29.691 44.0854L27.7715 43.8356L29.4366 46.0246Z" fill="#4B5B19"/>
<path d="M27.7406 46.233C27.7406 46.233 26.5439 45.5973 26.1732 45.5332L25.8032 45.4702L26.0751 44.0457C26.0751 44.0457 27.1807 44.5784 27.1741 44.6084C27.1675 44.6384 27.7403 46.2347 27.7403 46.2347L27.7406 46.233Z" fill="#6B7B3E"/>
<path d="M27.7393 46.2331C27.7358 45.1508 27.9938 44.2939 27.9938 44.2939L26.0742 44.0441L27.7393 46.2331Z" fill="#4B5B19"/>
<path d="M25.5926 46.2364C25.5926 46.2364 24.8965 45.0736 24.6121 44.8278L24.3276 44.582L25.297 43.503C25.297 43.503 25.9687 44.5308 25.9476 44.5527C25.9265 44.5746 25.5915 46.2371 25.5915 46.2371L25.5926 46.2364Z" fill="#6B7B3E"/>
<path d="M25.592 46.2362C26.1482 45.3082 26.8118 44.7076 26.8118 44.7076L25.2975 43.5021L25.592 46.2362Z" fill="#4B5B19"/>
<path d="M35.5408 35.6817C35.5408 35.6817 34.2074 35.9224 33.8769 36.1024L33.5475 36.2818L32.8788 34.9939C32.8788 34.9939 34.0768 34.7285 34.0905 34.7552C34.1031 34.7826 35.5415 35.6828 35.5415 35.6828L35.5408 35.6817Z" fill="#6B7B3E"/>
<path d="M35.5409 35.6816C34.8683 34.8329 34.5405 34.0015 34.5405 34.0015L32.8789 34.9938L35.5409 35.6816Z" fill="#4B5B19"/>
<path d="M35.3405 31.2384C35.3405 31.2384 34.1358 31.8595 33.8733 32.1283L33.6101 32.3961L32.5938 31.36C32.5938 31.36 33.6618 30.754 33.6816 30.7765C33.7025 30.7983 35.3398 31.2374 35.3398 31.2374L35.3405 31.2384Z" fill="#6B7B3E"/>
<path d="M35.3399 31.2383C34.4479 30.6247 33.8906 29.9255 33.8906 29.9255L32.5921 31.3606L35.3399 31.2383Z" fill="#4B5B19"/>
<path d="M35.4108 27.3102C35.4108 27.3102 34.2061 27.9313 33.9436 28.2001L33.6804 28.4679L32.6641 27.4318C32.6641 27.4318 33.7321 26.8258 33.7519 26.8483C33.7728 26.8701 35.4112 27.3084 35.4112 27.3084L35.4108 27.3102Z" fill="#6B7B3E"/>
<path d="M35.4103 27.3101C34.5182 26.6965 33.9609 25.9973 33.9609 25.9973L32.6625 27.4324L35.4103 27.3101Z" fill="#4B5B19"/>
<path d="M35.4089 24.7496C35.4089 24.7496 34.2041 25.3707 33.9416 25.6395L33.6785 25.9073L32.6621 24.8712C32.6621 24.8712 33.7302 24.2652 33.75 24.2877C33.7709 24.3095 35.4082 24.7486 35.4082 24.7486L35.4089 24.7496Z" fill="#6B7B3E"/>
<path d="M35.4083 24.7495C34.5162 24.1359 33.959 23.4368 33.959 23.4368L32.6605 24.8719L35.4083 24.7495Z" fill="#4B5B19"/>
<path d="M35.9069 26.2838C35.9069 26.2838 34.7022 26.9049 34.4397 27.1737L34.1765 27.4415L33.1602 26.4054C33.1602 26.4054 34.2282 25.7994 34.248 25.8219C34.2678 25.8444 35.9062 26.2828 35.9062 26.2828L35.9069 26.2838Z" fill="#6B7B3E"/>
<path d="M35.9064 26.2837C35.0143 25.6701 34.457 24.9709 34.457 24.9709L33.1585 26.4061L35.9064 26.2837Z" fill="#4B5B19"/>
<path d="M35.4597 22.7774C35.4597 22.7774 34.2549 23.3986 33.9924 23.6674L33.7292 23.9352L32.7129 22.8991C32.7129 22.8991 33.7809 22.2931 33.8008 22.3156C33.8216 22.3374 35.459 22.7764 35.459 22.7764L35.4597 22.7774Z" fill="#6B7B3E"/>
<path d="M35.4591 22.7774C34.567 22.1638 34.0097 21.4646 34.0097 21.4646L32.7113 22.8997L35.4591 22.7774Z" fill="#4B5B19"/>
<path d="M35.3367 20.797C35.3367 20.797 34.1319 21.4181 33.8694 21.6869L33.6062 21.9547L32.5898 20.9186C32.5898 20.9186 33.6579 20.3126 33.6777 20.3351C33.6976 20.3576 35.336 20.7959 35.336 20.7959L35.3367 20.797Z" fill="#6B7B3E"/>
<path d="M35.3361 20.7969C34.444 20.1833 33.8867 19.4841 33.8867 19.4841L32.5882 20.9192L35.3361 20.7969Z" fill="#4B5B19"/>
<path d="M33.7947 37.3824C33.7947 37.3824 32.4613 37.623 32.1308 37.8031L31.8014 37.9825L31.1327 36.6946C31.1327 36.6946 32.3307 36.4292 32.3444 36.4559C32.357 36.4833 33.7954 37.3834 33.7954 37.3834L33.7947 37.3824Z" fill="#6B7B3E"/>
<path d="M33.7948 37.3823C33.1229 36.5347 32.7944 35.7022 32.7944 35.7022L31.1328 36.6945L33.7948 37.3823Z" fill="#4B5B19"/>
<path d="M30.7893 41.9661C30.7893 41.9661 29.5227 41.4831 29.1476 41.4656L28.7725 41.448L28.8668 40.0005C28.8668 40.0005 30.0304 40.3916 30.0273 40.4222C30.0242 40.4529 30.7904 41.9654 30.7904 41.9654L30.7893 41.9661Z" fill="#6B7B3E"/>
<path d="M30.7898 41.9663C30.6525 40.8925 30.8019 40.0106 30.8019 40.0106L28.8672 40.0006L30.7908 41.9656L30.7898 41.9663Z" fill="#4B5B19"/>
<path d="M28.098 44.573C28.098 44.573 26.8312 44.0901 26.4562 44.0725L26.0811 44.0549L26.1754 42.6074C26.1754 42.6074 27.339 42.9985 27.3359 43.0292C27.3327 43.0598 28.099 44.5723 28.099 44.5723L28.098 44.573Z" fill="#6B7B3E"/>
<path d="M28.0984 44.5732C27.9611 43.4994 28.1105 42.6175 28.1105 42.6175L26.1758 42.6076L28.0984 44.5732Z" fill="#4B5B19"/>
<path d="M32.8748 39.1783C32.8748 39.1783 31.5414 39.419 31.2109 39.599L30.8815 39.7784L30.2128 38.4905C30.2128 38.4905 31.4108 38.2251 31.4245 38.2518C31.4371 38.2792 32.8755 39.1793 32.8755 39.1793L32.8748 39.1783Z" fill="#6B7B3E"/>
<path d="M32.8749 39.1782C32.203 38.3306 31.8745 37.4981 31.8745 37.4981L30.2129 38.4904L32.8749 39.1782Z" fill="#4B5B19"/>
<path d="M32.0252 40.5806C32.0252 40.5806 30.6917 40.8213 30.3613 41.0014L30.0319 41.1807L29.3632 39.8929C29.3632 39.8929 30.5622 39.6267 30.5748 39.6541C30.5875 39.6815 32.0259 40.5817 32.0259 40.5817L32.0252 40.5806Z" fill="#6B7B3E"/>
<path d="M32.024 40.5806C31.3521 39.7329 31.0236 38.9005 31.0236 38.9005L29.3613 39.8918L32.0233 40.5795L32.024 40.5806Z" fill="#4B5B19"/>
<path d="M34.0531 43.5928C34.0531 43.5928 32.8564 42.9571 32.4857 42.8931L32.1157 42.8301L32.3886 41.4048C32.3886 41.4048 33.4942 41.9376 33.4876 41.9675C33.481 41.9975 34.0538 43.5939 34.0538 43.5939L34.0531 43.5928Z" fill="#6B7B3E"/>
<path d="M34.0519 43.593C34.0483 42.5107 34.3063 41.6538 34.3063 41.6538L32.3867 41.404L34.0519 43.593Z" fill="#4B5B19"/>
<path d="M35.6456 42.3607C35.6456 42.3607 34.321 42.0747 33.9475 42.1146L33.5741 42.1544L33.4475 40.7088C33.4475 40.7088 34.6568 40.9202 34.6582 40.9508C34.6595 40.9814 35.6456 42.3607 35.6456 42.3607Z" fill="#6B7B3E"/>
<path d="M35.6453 42.3606C35.3474 41.3198 35.3615 40.4264 35.3615 40.4264L33.4473 40.7086L35.6453 42.3606Z" fill="#4B5B19"/>
<path d="M35.8233 40.7709C35.8233 40.7709 34.4987 40.4849 34.1253 40.5247L33.7518 40.5646L33.6253 39.1189C33.6253 39.1189 34.8346 39.3304 34.8359 39.361C34.8372 39.3916 35.8223 40.7716 35.8223 40.7716L35.8233 40.7709Z" fill="#6B7B3E"/>
<path d="M35.8231 40.7708C35.5251 39.7299 35.5393 38.8366 35.5393 38.8366L33.625 39.1188L35.8231 40.7708Z" fill="#4B5B19"/>
<path d="M37.8213 37.622C37.8213 37.622 36.4968 37.336 36.1233 37.3758L35.7499 37.4157L35.6233 35.97C35.6233 35.97 36.8326 36.1815 36.834 36.2121C36.8353 36.2427 37.8213 37.622 37.8213 37.622Z" fill="#6B7B3E"/>
<path d="M37.8211 37.6219C37.5232 36.581 37.5373 35.6877 37.5373 35.6877L35.623 35.9699L37.8211 37.6219Z" fill="#4B5B19"/>
<path d="M36.7217 39.5858C36.7217 39.5858 35.3971 39.2998 35.0237 39.3397L34.6502 39.3795L34.5237 37.9339C34.5237 37.9339 35.733 38.1453 35.7343 38.1759C35.7357 38.2065 36.7217 39.5858 36.7217 39.5858Z" fill="#6B7B3E"/>
<path d="M36.7215 39.5857C36.4236 38.5449 36.4377 37.6515 36.4377 37.6515L34.5234 37.9337L36.7215 39.5857Z" fill="#4B5B19"/>
<path d="M34.7413 39.1371C34.7413 39.1371 33.4167 38.8511 33.0433 38.8909L32.6698 38.9308L32.5432 37.4851C32.5432 37.4851 33.7525 37.6966 33.7539 37.7272C33.7552 37.7578 34.7413 39.1371 34.7413 39.1371Z" fill="#6B7B3E"/>
<path d="M34.741 39.137C34.4431 38.0961 34.4572 37.2028 34.4572 37.2028L32.543 37.485L34.741 39.137Z" fill="#4B5B19"/>
<path d="M34.0343 40.91C34.0343 40.91 32.7097 40.624 32.3362 40.6639L31.9627 40.7037L31.8362 39.2581C31.8362 39.2581 33.0455 39.4695 33.0469 39.5001C33.0482 39.5307 34.035 40.9111 34.035 40.9111L34.0343 40.91Z" fill="#6B7B3E"/>
<path d="M34.034 40.9099C33.7361 39.8691 33.7502 38.9757 33.7502 38.9757L31.8359 39.258L34.034 40.9099Z" fill="#4B5B19"/>
<path d="M33.1046 42.41C33.1046 42.41 31.78 42.124 31.4065 42.1639L31.0331 42.2037L30.9065 40.7581C30.9065 40.7581 32.1158 40.9695 32.1172 41.0001C32.1185 41.0307 33.1046 42.41 33.1046 42.41Z" fill="#6B7B3E"/>
<path d="M33.1043 42.4099C32.8064 41.3691 32.8205 40.4758 32.8205 40.4758L30.9062 40.758L33.1043 42.4099Z" fill="#4B5B19"/>
<path d="M31.549 44.0744C31.549 44.0744 30.3206 43.5023 29.947 43.4582L29.5734 43.4142L29.7703 41.9763C29.7703 41.9763 30.9031 42.4499 30.8975 42.4792C30.8927 42.5095 31.5483 44.0734 31.5483 44.0734L31.549 44.0744Z" fill="#6B7B3E"/>
<path d="M31.5496 44.0743C31.4903 42.9939 31.7014 42.1254 31.7014 42.1254L29.7715 41.9772L31.5485 44.075L31.5496 44.0743Z" fill="#4B5B19"/>
<path d="M30.2229 44.8351C30.2229 44.8351 28.9945 44.2631 28.6209 44.219L28.2473 44.1749L28.4441 42.737C28.4441 42.737 29.5769 43.2107 29.5714 43.24C29.5665 43.2703 30.2222 44.8341 30.2222 44.8341L30.2229 44.8351Z" fill="#6B7B3E"/>
<path d="M30.2234 44.835C30.1634 43.7536 30.3752 42.8862 30.3752 42.8862L28.4453 42.7379L30.2224 44.8357L30.2234 44.835Z" fill="#4B5B19"/>
<path d="M19.5606 12.4843C19.5606 12.4843 20.7229 12.9484 21.0688 12.9693L21.4146 12.9903L21.3069 14.3255C21.3069 14.3255 20.239 13.9472 20.2415 13.92C20.245 13.8921 19.5596 12.485 19.5596 12.485L19.5606 12.4843Z" fill="#6B7B3E"/>
<path d="M19.5593 12.4845C19.671 13.4766 19.5206 14.2888 19.5206 14.2888L21.3066 14.325L19.5604 12.4838L19.5593 12.4845Z" fill="#4B5B19"/>
<path d="M15.4355 17.2252C15.4355 17.2252 16.6856 17.2785 17.0196 17.183L17.3526 17.0882L17.6943 18.3827C17.6943 18.3827 16.5614 18.3803 16.5549 18.3532C16.5485 18.3261 15.4355 17.2252 15.4355 17.2252Z" fill="#6B7B3E"/>
<path d="M15.4346 17.2252C15.869 18.1251 15.9955 18.9407 15.9955 18.9407L17.6923 18.3834L15.4346 17.2252Z" fill="#4B5B19"/>
<path d="M16.5059 15.5265C16.5059 15.5265 17.7559 15.5797 18.0899 15.4842L18.4229 15.3894L18.7647 16.684C18.7647 16.684 17.6317 16.6815 17.6253 16.6544C17.6188 16.6273 16.5059 15.5265 16.5059 15.5265Z" fill="#6B7B3E"/>
<path d="M16.5049 15.5265C16.9393 16.4264 17.0658 17.2419 17.0658 17.2419L18.7627 16.6847L16.5049 15.5265Z" fill="#4B5B19"/>
<path d="M17.9121 13.8903C17.9121 13.8903 19.1383 14.1398 19.4825 14.0989L19.8267 14.0579L19.9604 15.3907C19.9604 15.3907 18.8425 15.2099 18.8399 15.1818C18.8389 15.1539 17.9128 13.8913 17.9128 13.8913L17.9121 13.8903Z" fill="#6B7B3E"/>
<path d="M17.9127 13.8901C18.1998 14.8468 18.1967 15.6726 18.1967 15.6726L19.9603 15.3895L17.9127 13.8901Z" fill="#4B5B19"/>
<path d="M12.4961 25.0597C12.4961 25.0597 13.6786 24.6503 13.954 24.4402L14.2295 24.2301L15.0217 25.3093C15.0217 25.3093 13.9661 25.7223 13.9508 25.6997C13.9354 25.6772 12.4961 25.0597 12.4961 25.0597Z" fill="#6B7B3E"/>
<path d="M12.4961 25.0597C13.2296 25.7379 13.647 26.4497 13.647 26.4497L15.0217 25.3093L12.4961 25.0597Z" fill="#4B5B19"/>
<path d="M12.8516 23.2887C12.8516 23.2887 14.034 22.8793 14.3095 22.6692L14.585 22.4591L15.3772 23.5383C15.3772 23.5383 14.3216 23.9513 14.3062 23.9287C14.2909 23.9062 12.8516 23.2887 12.8516 23.2887Z" fill="#6B7B3E"/>
<path d="M12.8516 23.2887C13.5851 23.9669 14.0025 24.6788 14.0025 24.6788L15.3772 23.5383L12.8516 23.2887Z" fill="#4B5B19"/>
<path d="M13.4385 21.2011C13.4385 21.2011 14.6685 20.9694 14.9716 20.802L15.2746 20.6346L15.8997 21.8187C15.8997 21.8187 14.7958 22.0725 14.7835 22.0479C14.7712 22.0232 13.4375 21.2018 13.4375 21.2018L13.4385 21.2011Z" fill="#6B7B3E"/>
<path d="M13.4374 21.2011C14.0635 21.9793 14.3717 22.7446 14.3717 22.7446L15.8995 21.8179L13.4374 21.2011Z" fill="#4B5B19"/>
<path d="M14.3652 19.2209C14.3652 19.2209 15.6108 19.1046 15.929 18.9659L16.2471 18.8272L16.7595 20.064C16.7595 20.064 15.636 20.2142 15.6268 20.1874C15.6166 20.1614 14.3652 19.2209 14.3652 19.2209Z" fill="#6B7B3E"/>
<path d="M14.3657 19.2208C14.9171 20.0545 15.1537 20.8446 15.1537 20.8446L16.76 20.064L14.3657 19.2208Z" fill="#4B5B19"/>
<path d="M12.2773 26.984C12.2773 26.984 13.4598 26.5747 13.7353 26.3645L14.0107 26.1544L14.8029 27.2336C14.8029 27.2336 13.7474 27.6466 13.732 27.624C13.7167 27.6015 12.2773 26.984 12.2773 26.984Z" fill="#6B7B3E"/>
<path d="M12.2773 26.984C13.0108 27.6622 13.4282 28.3741 13.4282 28.3741L14.8029 27.2336L12.2773 26.984Z" fill="#4B5B19"/>
<path d="M11.9825 29.0888C11.9825 29.0888 13.0379 28.4179 13.2584 28.1491L13.4779 27.8811L14.4977 28.7483C14.4977 28.7483 13.5659 29.3935 13.5454 29.3744C13.5249 29.3554 11.9818 29.0877 11.9818 29.0877L11.9825 29.0888Z" fill="#6B7B3E"/>
<path d="M11.9824 29.0885C12.8523 29.5792 13.4237 30.1758 13.4237 30.1758L14.4983 28.7491L11.9831 29.0896L11.9824 29.0885Z" fill="#4B5B19"/>
<path d="M12.2246 31.5337C12.2246 31.5337 13.0767 30.6172 13.2211 30.3027L13.3665 29.9876L14.5726 30.5689C14.5726 30.5689 13.8349 31.4285 13.8096 31.4157C13.7844 31.4029 12.2246 31.5337 12.2246 31.5337Z" fill="#6B7B3E"/>
<path d="M12.2246 31.5338C13.1902 31.7883 13.8933 32.2216 13.8933 32.2216L14.5726 30.5691L12.2246 31.5338Z" fill="#4B5B19"/>
<path d="M12.7223 32.9598C12.7223 32.9598 13.6981 32.1765 13.8864 31.8847L14.0754 31.5939L15.1852 32.3443C15.1852 32.3443 14.3311 33.0882 14.3082 33.0722C14.2853 33.0563 12.7223 32.9598 12.7223 32.9598Z" fill="#6B7B3E"/>
<path d="M12.7227 32.9596C13.6418 33.3508 14.2747 33.8814 14.2747 33.8814L15.1856 32.3442L12.7227 32.9596Z" fill="#4B5B19"/>
<path d="M13.2469 35.1072C13.2469 35.1072 14.015 34.1203 14.1314 33.7935L14.2478 33.4666L15.5003 33.9397C15.5003 33.9397 14.8409 34.8615 14.8154 34.8504C14.7898 34.8393 13.2469 35.1072 13.2469 35.1072Z" fill="#6B7B3E"/>
<path d="M13.248 35.1071C14.2327 35.2751 14.971 35.6454 14.971 35.6454L15.5015 33.9397L13.248 35.1071Z" fill="#4B5B19"/>
<path d="M14.0583 37.1522C14.0583 37.1522 14.552 36.0027 14.582 35.6567L14.6119 35.3108L15.9433 35.4526C15.9433 35.4526 15.5384 36.5101 15.5105 36.5066C15.4826 36.5031 14.0576 37.1512 14.0576 37.1512L14.0583 37.1522Z" fill="#6B7B3E"/>
<path d="M14.0586 37.1522C15.0538 37.0669 15.8613 37.237 15.8613 37.237L15.9436 35.4526L14.0579 37.1512L14.0586 37.1522Z" fill="#4B5B19"/>
<path d="M14.8014 38.7156C14.8014 38.7156 15.5117 37.6856 15.6088 37.3524L15.7059 37.0192L16.9838 37.4195C16.9838 37.4195 16.3791 38.3776 16.3515 38.3679C16.3256 38.3585 14.8007 38.7145 14.8007 38.7145L14.8014 38.7156Z" fill="#6B7B3E"/>
<path d="M14.8027 38.716C15.7954 38.8275 16.5536 39.1542 16.5536 39.1542L16.9858 37.421L14.8027 38.716Z" fill="#4B5B19"/>
<path d="M15.8115 40.5859C15.8115 40.5859 16.2638 39.4195 16.2831 39.0734L16.3006 38.7268L17.6364 38.8222C17.6364 38.8222 17.268 39.8938 17.2408 39.8913C17.2129 39.8878 15.8122 40.5869 15.8122 40.5869L15.8115 40.5859Z" fill="#6B7B3E"/>
<path d="M15.8125 40.5857C16.8046 40.4651 17.6174 40.6076 17.6174 40.6076L17.6374 38.8221L15.8125 40.5857Z" fill="#4B5B19"/>
<path d="M17.4544 42.4103C17.4544 42.4103 17.5982 41.1676 17.5277 40.8285L17.4573 40.4894L18.7738 40.2438C18.7738 40.2438 18.6881 41.3734 18.6613 41.3782C18.6338 41.3819 17.4541 42.412 17.4541 42.412L17.4544 42.4103Z" fill="#6B7B3E"/>
<path d="M17.4539 42.4101C18.3829 42.0428 19.2053 41.9748 19.2053 41.9748L18.7735 40.2419L17.4539 42.4101Z" fill="#4B5B19"/>
<path d="M18.7021 43.2632C18.7021 43.2632 19.0233 42.0542 19.0033 41.7077L18.9833 41.3612L20.3214 41.3079C20.3214 41.3079 20.0742 42.4141 20.0456 42.414C20.0171 42.414 18.7021 43.2632 18.7021 43.2632Z" fill="#6B7B3E"/>
<path d="M18.7032 43.2634C19.6749 43.0336 20.4995 43.0856 20.4995 43.0856L20.3225 41.3082L18.7032 43.2634Z" fill="#4B5B19"/>
<path d="M20.3941 44.6839C20.3941 44.6839 20.4277 43.4337 20.3284 43.1007L20.2281 42.7684L21.5173 42.4078C21.5173 42.4078 21.5317 43.5413 21.5046 43.5478C21.4775 43.5542 20.393 44.6845 20.393 44.6845L20.3941 44.6839Z" fill="#6B7B3E"/>
<path d="M20.3944 44.684C21.2869 44.2366 22.1006 44.0964 22.1006 44.0964L21.5177 42.408L20.3944 44.684Z" fill="#4B5B19"/>
<path d="M22.4557 45.7451C22.4557 45.7451 22.1718 44.5267 21.9914 44.231L21.811 43.9353L22.9671 43.2603C22.9671 43.2603 23.2676 44.3534 23.2429 44.3657C23.2179 44.3797 22.4546 45.7458 22.4546 45.7458L22.4557 45.7451Z" fill="#6B7B3E"/>
<path d="M22.456 45.7449C23.2075 45.086 23.9583 44.7456 23.9583 44.7456L22.9675 43.2601L22.455 45.7456L22.456 45.7449Z" fill="#4B5B19"/>
<path d="M20.8575 12.5912C20.8575 12.5912 22.0198 13.0553 22.3656 13.0763L22.7115 13.0972L22.6038 14.4324C22.6038 14.4324 21.5359 14.0541 21.5384 14.0269C21.5419 13.999 20.8565 12.5919 20.8565 12.5919L20.8575 12.5912Z" fill="#6B7B3E"/>
<path d="M20.8582 12.5914C20.9688 13.5843 20.8194 14.3957 20.8194 14.3957L22.6055 14.4319L20.8592 12.5907L20.8582 12.5914Z" fill="#4B5B19"/>
<path d="M16.7344 17.3327C16.7344 17.3327 17.9844 17.3859 18.3184 17.2904L18.6514 17.1956L18.9932 18.4902C18.9932 18.4902 17.8602 18.4877 17.8538 18.4606C17.8473 18.4335 16.7344 17.3327 16.7344 17.3327Z" fill="#6B7B3E"/>
<path d="M16.7334 17.3327C17.1678 18.2325 17.2943 19.0481 17.2943 19.0481L18.9912 18.4908L16.7334 17.3327Z" fill="#4B5B19"/>
<path d="M17.8047 15.6339C17.8047 15.6339 19.0547 15.6872 19.3888 15.5917L19.7218 15.4968L20.0635 16.7914C20.0635 16.7914 18.9306 16.789 18.9241 16.7619C18.9176 16.7348 17.8047 15.6339 17.8047 15.6339Z" fill="#6B7B3E"/>
<path d="M17.8037 15.6339C18.2381 16.5338 18.3646 17.3494 18.3646 17.3494L20.0615 16.7921L17.8037 15.6339Z" fill="#4B5B19"/>
<path d="M19.2109 13.9982C19.2109 13.9982 20.4371 14.2477 20.7813 14.2068L21.1256 14.1658L21.2592 15.4986C21.2592 15.4986 20.1414 15.3179 20.1387 15.2897C20.136 15.2615 19.2116 13.9992 19.2116 13.9992L19.2109 13.9982Z" fill="#6B7B3E"/>
<path d="M19.2116 13.998C19.4987 14.9547 19.4956 15.7805 19.4956 15.7805L21.2592 15.4974L19.2116 13.998Z" fill="#4B5B19"/>
<path d="M13.7949 25.1671C13.7949 25.1671 14.9774 24.7578 15.2529 24.5476L15.5283 24.3375L16.3205 25.4167C16.3205 25.4167 15.265 25.8297 15.2496 25.8071C15.2342 25.7846 13.7949 25.1671 13.7949 25.1671Z" fill="#6B7B3E"/>
<path d="M13.7949 25.1671C14.5284 25.8453 14.9458 26.5572 14.9458 26.5572L16.3205 25.4167L13.7949 25.1671Z" fill="#4B5B19"/>
<path d="M14.1504 23.3957C14.1504 23.3957 15.3329 22.9863 15.6083 22.7761L15.8838 22.566L16.676 23.6453C16.676 23.6453 15.6204 24.0582 15.6051 24.0356C15.5897 24.0131 14.1504 23.3957 14.1504 23.3957Z" fill="#6B7B3E"/>
<path d="M14.1504 23.3957C14.8839 24.0738 15.3013 24.7857 15.3013 24.7857L16.676 23.6453L14.1504 23.3957Z" fill="#4B5B19"/>
<path d="M14.7374 21.308C14.7374 21.308 15.9663 21.077 16.2704 20.9089L16.5735 20.7415L17.1985 21.9256C17.1985 21.9256 16.0946 22.1794 16.0823 22.1548C16.07 22.1301 14.7363 21.3087 14.7363 21.3087L14.7374 21.308Z" fill="#6B7B3E"/>
<path d="M14.7362 21.308C15.3623 22.0863 15.6706 22.8515 15.6706 22.8515L17.1984 21.9249L14.7362 21.308Z" fill="#4B5B19"/>
<path d="M15.666 19.3288C15.666 19.3288 16.9116 19.2125 17.2297 19.0738L17.5478 18.9351L18.0603 20.1719C18.0603 20.1719 16.9368 20.3221 16.9275 20.2954C16.9173 20.2693 15.667 19.3281 15.667 19.3281L15.666 19.3288Z" fill="#6B7B3E"/>
<path d="M15.6656 19.329C16.217 20.1627 16.4525 20.9534 16.4525 20.9534L18.0588 20.1729L15.6645 19.3297L15.6656 19.329Z" fill="#4B5B19"/>
<path d="M13.5762 27.0924C13.5762 27.0924 14.7587 26.6831 15.0341 26.4729L15.3096 26.2628L16.1017 27.342C16.1017 27.342 15.0462 27.755 15.0309 27.7324C15.0155 27.7099 13.5762 27.0924 13.5762 27.0924Z" fill="#6B7B3E"/>
<path d="M13.5762 27.0924C14.3097 27.7706 14.7271 28.4825 14.7271 28.4825L16.1017 27.342L13.5762 27.0924Z" fill="#4B5B19"/>
<path d="M13.2813 29.1972C13.2813 29.1972 14.3367 28.5263 14.5572 28.2575L14.7767 27.9895L15.7965 28.8567C15.7965 28.8567 14.8647 29.5019 14.8443 29.4828C14.8238 29.4638 13.2806 29.1961 13.2806 29.1961L13.2813 29.1972Z" fill="#6B7B3E"/>
<path d="M13.2812 29.1969C14.1511 29.6876 14.7225 30.2842 14.7225 30.2842L15.7972 28.8575L13.2819 29.198L13.2812 29.1969Z" fill="#4B5B19"/>
<path d="M14.3477 30.2377C14.3477 30.2377 15.4031 29.5668 15.6236 29.2981L15.8431 29.03L16.8629 29.8972C16.8629 29.8972 15.9311 30.5424 15.9106 30.5234C15.8902 30.5043 14.347 30.2367 14.347 30.2367L14.3477 30.2377Z" fill="#6B7B3E"/>
<path d="M14.3477 30.2375C15.2186 30.7275 15.7889 31.3247 15.7889 31.3247L16.8636 29.898L14.3484 30.2385L14.3477 30.2375Z" fill="#4B5B19"/>
<path d="M14.8282 28.2055C14.8282 28.2055 15.8836 27.5346 16.1041 27.2658L16.3236 26.9978L17.3434 27.865C17.3434 27.865 16.4116 28.5102 16.3911 28.4911C16.3706 28.4721 14.8275 28.2044 14.8275 28.2044L14.8282 28.2055Z" fill="#6B7B3E"/>
<path d="M14.8281 28.2052C15.699 28.6952 16.2694 29.2925 16.2694 29.2925L17.344 27.8658L14.8288 28.2063L14.8281 28.2052Z" fill="#4B5B19"/>
<path d="M15.1192 26.0863C15.1192 26.0863 16.1746 25.4154 16.3951 25.1467L16.6146 24.8786L17.6351 25.7469C17.6351 25.7469 16.7033 26.3921 16.6828 26.373C16.6623 26.354 15.1192 26.0863 15.1192 26.0863Z" fill="#6B7B3E"/>
<path d="M15.1191 26.0861C15.99 26.5761 16.5604 27.1733 16.5604 27.1733L17.6351 25.7466L15.1198 26.0871L15.1191 26.0861Z" fill="#4B5B19"/>
<path d="M15.9512 22.9992C15.9512 22.9992 17.1661 22.7012 17.4607 22.5171L17.7543 22.3336L18.4433 23.4816C18.4433 23.4816 17.3548 23.7955 17.3408 23.7705C17.3268 23.7455 15.9512 22.9992 15.9512 22.9992Z" fill="#6B7B3E"/>
<path d="M15.9512 22.9992C16.6189 23.7416 16.9686 24.4906 16.9686 24.4906L18.4433 23.4816L15.9512 22.9992Z" fill="#4B5B19"/>
<path d="M16.4277 20.7458C16.4277 20.7458 17.6426 20.4478 17.9373 20.2636L18.2309 20.0801L18.9199 21.2282C18.9199 21.2282 17.8314 21.5421 17.8174 21.5171C17.8033 21.4921 16.4277 20.7458 16.4277 20.7458Z" fill="#6B7B3E"/>
<path d="M16.4277 20.7458C17.0955 21.4882 17.4452 22.2372 17.4452 22.2372L18.9199 21.2282L16.4277 20.7458Z" fill="#4B5B19"/>
<path d="M13.5254 31.6411C13.5254 31.6411 14.3774 30.7246 14.5219 30.4102L14.6673 30.0951L15.8734 30.6763C15.8734 30.6763 15.1357 31.5359 15.1104 31.5231C15.0852 31.5103 13.5254 31.6411 13.5254 31.6411Z" fill="#6B7B3E"/>
<path d="M13.5254 31.6413C14.4909 31.8958 15.1941 32.329 15.1941 32.329L15.8734 30.6765L13.5254 31.6413Z" fill="#4B5B19"/>
<path d="M14.023 33.0672C14.023 33.0672 14.9989 32.2839 15.1872 31.9921L15.3762 31.7013L16.486 32.4517C16.486 32.4517 15.6319 33.1956 15.609 33.1796C15.5861 33.1637 14.023 33.0672 14.023 33.0672Z" fill="#6B7B3E"/>
<path d="M14.0234 33.067C14.9425 33.4582 15.5755 33.9888 15.5755 33.9888L16.4864 32.4516L14.0234 33.067Z" fill="#4B5B19"/>
<path d="M14.5457 35.2141C14.5457 35.2141 15.3138 34.2273 15.4302 33.9004L15.5467 33.5735L16.7992 34.0467C16.7992 34.0467 16.1398 34.9685 16.1142 34.9574C16.0886 34.9463 14.5457 35.2141 14.5457 35.2141Z" fill="#6B7B3E"/>
<path d="M14.5469 35.214C15.5315 35.382 16.2698 35.7523 16.2698 35.7523L16.8004 34.0466L14.5469 35.214Z" fill="#4B5B19"/>
<path d="M15.3571 37.2597C15.3571 37.2597 15.8509 36.1101 15.8808 35.7642L15.9107 35.4182L17.2421 35.5601C17.2421 35.5601 16.8372 36.6175 16.8093 36.614C16.7814 36.6105 15.3564 37.2586 15.3564 37.2586L15.3571 37.2597Z" fill="#6B7B3E"/>
<path d="M15.3574 37.2596C16.3526 37.1744 17.1601 37.3445 17.1601 37.3445L17.2424 35.56L15.3567 37.2586L15.3574 37.2596Z" fill="#4B5B19"/>
<path d="M16.1003 38.822C16.1003 38.822 16.8105 37.7921 16.9077 37.4589L17.0047 37.1257L18.2827 37.526C18.2827 37.526 17.678 38.484 17.6503 38.4743C17.6245 38.4649 16.0996 38.821 16.0996 38.821L16.1003 38.822Z" fill="#6B7B3E"/>
<path d="M16.1016 38.8224C17.0942 38.9339 17.8524 39.2607 17.8524 39.2607L18.2846 37.5274L16.1016 38.8224Z" fill="#4B5B19"/>
<path d="M17.1103 40.6923C17.1103 40.6923 17.5627 39.526 17.5819 39.1798L17.5994 38.8333L18.9352 38.9287C18.9352 38.9287 18.5669 40.0002 18.5397 39.9978C18.5118 39.9942 17.111 40.6933 17.111 40.6933L17.1103 40.6923Z" fill="#6B7B3E"/>
<path d="M17.1114 40.6922C18.1034 40.5715 18.9162 40.7141 18.9162 40.7141L18.9362 38.9285L17.1114 40.6922Z" fill="#4B5B19"/>
<path d="M18.7533 42.5182C18.7533 42.5182 18.897 41.2755 18.8266 40.9364L18.7561 40.5973L20.0726 40.3517C20.0726 40.3517 19.9869 41.4813 19.9601 41.4861C19.9327 41.4898 18.7529 42.5199 18.7529 42.5199L18.7533 42.5182Z" fill="#6B7B3E"/>
<path d="M18.7527 42.518C19.6818 42.1507 20.5041 42.0827 20.5041 42.0827L20.0724 40.3498L18.7527 42.518Z" fill="#4B5B19"/>
<path d="M20.0009 43.3716C20.0009 43.3716 20.3221 42.1626 20.3021 41.8161L20.2822 41.4696L21.6202 41.4164C21.6202 41.4164 21.373 42.5225 21.3444 42.5224C21.3159 42.5224 20.0009 43.3716 20.0009 43.3716Z" fill="#6B7B3E"/>
<path d="M20.002 43.3718C20.9737 43.142 21.7983 43.194 21.7983 43.194L21.6213 41.4166L20.002 43.3718Z" fill="#4B5B19"/>
<path d="M21.6948 44.7913C21.6948 44.7913 21.7285 43.5411 21.6292 43.2081L21.5289 42.8758L22.8181 42.5153C22.8181 42.5153 22.8325 43.6487 22.8054 43.6552C22.7783 43.6616 21.6938 44.792 21.6938 44.792L21.6948 44.7913Z" fill="#6B7B3E"/>
<path d="M21.6952 44.7914C22.5877 44.344 23.4014 44.2038 23.4014 44.2038L22.8184 42.5154L21.6952 44.7914Z" fill="#4B5B19"/>
<path d="M23.7545 45.8531C23.7545 45.8531 23.4706 44.6346 23.2902 44.3389L23.1098 44.0432L24.2659 43.3682C24.2659 43.3682 24.5664 44.4613 24.5417 44.4736C24.5168 44.4876 23.7535 45.8538 23.7535 45.8538L23.7545 45.8531Z" fill="#6B7B3E"/>
<path d="M23.7549 45.8528C24.5063 45.1939 25.2571 44.8535 25.2571 44.8535L24.2663 43.368L23.7538 45.8535L23.7549 45.8528Z" fill="#4B5B19"/>
<path d="M15.3654 31.8777C15.3654 31.8777 16.4442 31.2434 16.672 30.9832L16.9009 30.7222L17.8908 31.6248C17.8908 31.6248 16.9384 32.2376 16.9172 32.2175C16.8977 32.1977 15.3647 31.8767 15.3647 31.8767L15.3654 31.8777Z" fill="#6B7B3E"/>
<path d="M15.3652 31.8776C16.2179 32.3981 16.7678 33.0137 16.7678 33.0137L17.8906 31.6247L15.3652 31.8776Z" fill="#4B5B19"/>
<path d="M15.3459 30.6809C15.3459 30.6809 16.4247 30.0466 16.6525 29.7864L16.8814 29.5255L17.8713 30.428C17.8713 30.428 16.9188 31.0408 16.8977 31.0207C16.8782 31.001 15.3452 30.6799 15.3452 30.6799L15.3459 30.6809Z" fill="#6B7B3E"/>
<path d="M15.3457 30.6808C16.1983 31.2013 16.7482 31.8169 16.7482 31.8169L17.8711 30.4279L15.3457 30.6808Z" fill="#4B5B19"/>
<path d="M15.6115 34.2171C15.6115 34.2171 16.6903 33.5827 16.9181 33.3225L17.147 33.0616L18.1369 33.9642C18.1369 33.9642 17.1845 34.5769 17.1633 34.5568C17.1438 34.5371 15.6108 34.216 15.6108 34.216L15.6115 34.2171Z" fill="#6B7B3E"/>
<path d="M15.6113 34.2169C16.464 34.7374 17.0139 35.353 17.0139 35.353L18.1367 33.9641L15.6113 34.2169Z" fill="#4B5B19"/>
<path d="M33.1741 11.3234C33.1741 11.3234 32.7826 12.6208 32.7909 12.9963L32.8008 13.3721L31.3498 13.3808C31.3498 13.3808 31.6582 12.1925 31.6874 12.1936C31.7177 12.194 33.1724 11.3231 33.1724 11.3231L33.1741 11.3234Z" fill="#6B7B3E"/>
<path d="M33.1747 11.3236C32.1133 11.5364 31.2238 11.4507 31.2238 11.4507L31.351 13.382L33.1747 11.3236Z" fill="#4B5B19"/>
<path d="M34.7777 12.548C34.7777 12.548 34.3861 13.8455 34.3944 14.221L34.4043 14.5968L32.9533 14.6054C32.9533 14.6054 33.2617 13.4171 33.292 13.4175C33.3222 13.4179 34.777 12.547 34.777 12.547L34.7777 12.548Z" fill="#6B7B3E"/>
<path d="M34.7782 12.5482C33.7169 12.761 32.8273 12.6753 32.8273 12.6753L32.9546 14.6066L34.7782 12.5482Z" fill="#4B5B19"/>
<path d="M34.5973 14.5754C34.5973 14.5754 33.9004 15.7372 33.8174 16.1043L33.7354 16.4708L32.3267 16.1251C32.3267 16.1251 32.9164 15.0482 32.9451 15.0572C32.9747 15.0655 34.598 14.5764 34.598 14.5764L34.5973 14.5754Z" fill="#6B7B3E"/>
<path d="M34.598 14.5751C33.5175 14.522 32.675 14.2212 32.675 14.2212L32.3257 16.1245L34.5987 14.5762L34.598 14.5751Z" fill="#4B5B19"/>
<path d="M33.1467 13.8781C33.1467 13.8781 32.7459 15.1729 32.7531 15.5491L32.7603 15.9253L31.3092 15.925C31.3092 15.925 31.6252 14.739 31.6554 14.7394C31.6864 14.7408 33.1467 13.8781 33.1467 13.8781Z" fill="#6B7B3E"/>
<path d="M33.146 13.8783C32.0832 14.0846 31.1939 13.9927 31.1939 13.9927L31.3085 15.9252L33.145 13.879L33.146 13.8783Z" fill="#4B5B19"/>
<path d="M31.3141 11.3744C31.3141 11.3744 30.9402 12.6779 30.9549 13.0519L30.9693 13.4277L29.5189 13.457C29.5189 13.457 29.81 12.2654 29.8413 12.2651C29.8716 12.2655 31.3151 11.3737 31.3151 11.3737L31.3141 11.3744Z" fill="#6B7B3E"/>
<path d="M31.3133 11.3746C30.2553 11.6032 29.3645 11.5289 29.3645 11.5289L29.5189 13.4582L31.314 11.3756L31.3133 11.3746Z" fill="#4B5B19"/>
<path d="M29.3841 8.93578C29.3841 8.93578 29.5083 10.2855 29.6589 10.63L29.8096 10.9745L28.4693 11.5289C28.4693 11.5289 28.3083 10.3123 28.3353 10.3013C28.3641 10.2907 29.3841 8.93578 29.3841 8.93578Z" fill="#6B7B3E"/>
<path d="M29.385 8.93602C28.4819 9.53315 27.6243 9.78729 27.6243 9.78729L28.4685 11.5288L29.385 8.93602Z" fill="#4B5B19"/>
<path d="M26.9975 8.64369C26.9975 8.64369 27.8636 9.68609 28.1817 9.88652L28.5001 10.0852L27.7074 11.3003C27.7074 11.3003 26.8863 10.3878 26.9036 10.3625C26.9209 10.3373 26.9975 8.64369 26.9975 8.64369Z" fill="#6B7B3E"/>
<path d="M26.9981 8.64357C26.5902 9.64607 26.0273 10.3416 26.0273 10.3416L27.708 11.3002L26.9981 8.64357Z" fill="#4B5B19"/>
<path d="M25.9077 9.93275C25.9077 9.93275 26.7738 10.9752 27.0918 11.1756L27.4102 11.3743L26.6176 12.5894C26.6176 12.5894 25.7965 11.6769 25.8144 11.6526C25.8317 11.6274 25.9084 9.93376 25.9084 9.93376L25.9077 9.93275Z" fill="#6B7B3E"/>
<path d="M25.9083 9.93263C25.5004 10.9351 24.9375 11.6307 24.9375 11.6307L26.6182 12.5893L25.9083 9.93263Z" fill="#4B5B19"/>
<path d="M29.6678 10.9741C29.6678 10.9741 29.38 12.2984 29.4188 12.6725L29.4587 13.046L28.0134 13.1708C28.0134 13.1708 28.2255 11.9625 28.2554 11.9602C28.286 11.9588 29.6667 10.9748 29.6667 10.9748L29.6678 10.9741Z" fill="#6B7B3E"/>
<path d="M29.6667 10.9745C28.6262 11.2706 27.7321 11.2555 27.7321 11.2555L28.0133 13.1704L29.6677 10.9738L29.6667 10.9745Z" fill="#4B5B19"/>
<path d="M27.5659 10.7355C27.5659 10.7355 26.3426 12.0474 25.9409 11.9159C25.5382 11.7851 25.3845 11.0991 25.3845 11.0991C25.3845 11.0991 24.9837 11.9423 24.4795 12.1206C23.9754 12.299 23.7516 11.5123 23.7516 11.5123L23.6742 11.859C23.5968 12.2058 23.417 12.6974 23.1227 12.8049C22.829 12.9134 22.3908 12.2172 22.3908 12.2172C22.3908 12.2172 22.605 12.9369 22.0705 13.5576C21.5368 14.1792 20.6961 13.2425 20.6961 13.2425C20.6961 13.2425 20.892 13.7722 21.0177 14.2012C21.1084 14.5085 21.0747 14.8136 20.9287 15.0045C20.9596 14.8604 20.9702 14.7902 20.9519 14.8161C20.917 14.8684 20.8846 14.964 20.8497 15.0868C20.8064 15.1223 20.7571 15.1514 20.7016 15.1712C20.3733 15.2838 19.47 14.7948 19.47 14.7948C19.47 14.7948 20.3917 16.377 20.1644 16.7524C20.1206 16.8093 20.0754 16.8641 20.027 16.9165C19.3712 17.6078 17.9989 17.0602 17.9989 17.0602C17.9989 17.0602 19.3245 18.5503 18.8034 18.9878C18.2822 19.4253 16.993 19.5459 16.993 19.5459C16.993 19.5459 18.7785 20.5591 18.3884 21.2045C17.9989 21.8508 16.8323 22.1624 16.8323 22.1624C16.8323 22.1624 16.9303 22.1872 17.5245 22.5551C18.046 22.878 18.1812 23.2945 18.0581 23.7504C17.4684 24.3427 16.2411 24.1225 16.2411 24.1225C16.2411 24.1225 17.8388 25.3161 17.4173 25.8493C16.9958 26.3825 15.756 26.7605 15.756 26.7605C15.756 26.7605 17.7082 27.3931 17.4564 28.1048C17.2045 28.8165 16.1241 29.3559 16.1241 29.3559C16.1241 29.3559 16.2249 29.3607 16.8808 29.6011C17.2136 29.724 17.4251 29.9025 17.5405 30.1225C17.5438 30.2177 17.5408 30.3233 17.5244 30.438C17.4451 31.0066 16.2573 30.884 16.2573 30.884C16.2573 30.884 17.3727 31.548 17.4484 32.1282C17.524 32.7083 16.1581 33.007 16.1581 33.007C16.1581 33.007 17.6848 33.592 17.6616 34.0249C17.6374 34.4585 16.6643 35.5144 16.7149 35.5535C16.7655 35.5925 18.1374 35.5162 18.1374 35.5162L17.1278 36.9151L18.2788 36.6952L17.2196 38.7415L18.7065 38.4398L18.0859 40.555L19.7732 40.0432L19.6896 41.1804L20.3011 41.034C20.3011 41.034 22.1873 43.9726 23.9798 44.1109C27.9601 44.4168 32.3978 41.3129 33.7296 33.6647C34.1544 31.2268 34.2868 26.3926 34.2823 25.3619C34.2698 22.6277 33.4773 18.8541 33.009 17.6953C30.6992 11.9829 28.2333 11.7482 27.7831 11.8163C27.3328 11.8844 27.5607 10.7345 27.5607 10.7345L27.5659 10.7355Z" fill="#FFE6C1"/>
<path d="M20.1631 20.5048C19.3747 22.8648 18.7315 28.242 18.8694 30.3717C19.0065 32.5003 19.0284 34.9309 19.8125 36.5468C20.5966 38.1627 22.1986 40.3362 22.4322 41.2319C22.6657 42.1275 23.7042 44.0442 25.2764 43.5659C26.8492 43.0887 27.4813 42.8096 29.7901 39.9481C32.0979 37.0873 33.1234 34.5974 33.207 32.0814C33.2913 29.5664 32.8732 27.9922 32.8425 26.3658C32.7963 23.8421 31.6239 16.6034 28.8974 13.5259C27.6132 12.0767 23.4175 10.7563 20.1617 20.5027L20.1631 20.5048Z" fill="#F4C895"/>
<path d="M19.8829 29.3592C19.8829 29.3592 19.8439 34.553 20.2916 35.8489C20.7392 37.1448 22.1741 38.8351 22.6099 39.6334C23.0458 40.4318 23.4664 41.3665 23.6508 41.9566C23.8352 42.5467 24.6137 43.3172 25.4786 42.7986C26.3436 42.2799 27.6533 40.597 28.7213 39.2244C29.79 37.8528 31.3692 35.8409 31.6457 34.9759C31.9222 34.1109 31.9237 32.7475 32.0823 30.683C32.2398 28.6192 32.0524 26.9675 32.0975 26.4852C32.2941 24.3753 31.2802 19.9617 31.2802 19.9617L22.0541 29.8772L19.8839 29.3585L19.8829 29.3592Z" fill="#E77F40"/>
<path d="M24.3768 41.9056C24.6375 42.1496 25.0337 42.1783 25.3281 41.9763C26.3348 41.289 26.1737 40.7837 29.4385 36.8148C30.9602 34.9651 31.3758 32.1524 31.3673 30.6113C31.3581 29.0692 32.1271 25.6212 31.6501 21.6192C31.173 17.6171 29.1215 14.1715 27.9373 13.4793C27.0295 12.9484 22.7885 12.7045 21.1314 18.7409C19.4744 24.7772 19.6175 28.5357 19.8361 31.482C20.0546 34.4284 20.3572 36.0047 22.4012 38.4833C24.6331 41.1894 23.7359 41.3084 24.3758 41.9063L24.3768 41.9056Z" fill="#FFCA00"/>
<path d="M23.7559 14.9987C23.3964 15.4071 23.0964 15.874 22.8363 16.3513C21.7652 18.3096 21.2508 20.552 21.3639 22.7555C21.434 24.1316 21.8965 25.2929 22.4988 26.5075C23.0284 27.5735 24.5732 27.555 25.5254 27.0564C26.4735 26.5607 27.0673 25.5845 27.5037 24.6151C28.8292 21.6778 29.5057 17.9552 27.9985 15.0179C27.64 14.3199 27.1262 13.7726 26.2849 13.7246C25.7109 13.6925 25.1371 13.8943 24.6515 14.2101C24.3146 14.4291 24.0181 14.6986 23.7542 14.9984L23.7559 14.9987Z" fill="#FFDF82"/>
<path d="M20.7416 34.9471C20.7394 35.0056 20.7442 35.0654 20.7554 35.1238C20.814 35.4499 20.9867 35.7959 21.131 36.0937C21.3105 36.4651 21.5225 36.8203 21.7621 37.1567C22.6345 38.3868 23.648 39.2403 23.8716 40.0002C24.0952 40.7602 24.3582 41.4722 24.8383 41.3312C25.3166 41.1899 25.8893 40.0197 26.7168 38.9174C27.5443 37.8151 28.9832 36.1852 29.4719 35.1427C29.9595 34.1009 30.2975 31.7822 30.3922 30.7274C30.4869 29.6727 30.6777 27.9088 30.7494 27.0273C30.8218 26.1468 30.0173 26.2807 29.2407 29.3498C28.4641 32.4189 27.3928 34.3879 26.0539 35.6975C25.4228 36.315 24.5421 36.6014 23.6681 36.5275C23.3228 36.4986 22.975 36.4175 22.6622 36.2645C22.2374 36.0572 22.0055 35.6661 21.7082 35.3089C21.5258 35.0896 21.3414 34.8717 21.1535 34.6576C21.0999 34.5965 21.0288 34.5295 20.9498 34.5458C20.9024 34.5555 20.8667 34.5934 20.8396 34.6328C20.7776 34.7246 20.7487 34.8342 20.7444 34.9468L20.7416 34.9471Z" fill="#FFB41A"/>
<path d="M20.694 31.6674C20.5614 31.6182 20.4158 31.7039 20.3938 31.8434C20.3627 32.0401 20.4162 32.3323 20.8415 32.6262C21.5833 33.1381 23.194 33.5578 23.5971 33.2862C24.0013 33.0139 23.6066 32.7606 22.9145 32.6454C22.2231 32.5313 21.7092 32.3892 21.401 32.1701C21.0927 31.951 20.8448 31.7237 20.6974 31.6681C20.6967 31.6671 20.695 31.6667 20.6933 31.6664L20.694 31.6674Z" fill="#FFB41A"/>
<path d="M20.9823 33.4802C21.142 33.631 22.3937 34.2352 22.7305 34.2758C23.0683 34.3158 22.9392 34.4457 22.7982 34.4832C22.6573 34.5207 21.8991 34.227 21.3835 33.9151C20.8679 33.6031 20.6626 33.5044 20.7139 33.4365C20.7651 33.3685 20.9823 33.4802 20.9823 33.4802Z" fill="#FFB41A"/>
<path d="M26.8329 31.0841C27.5609 31.3249 29.1827 31.437 29.9025 31.1237C30.6213 30.8111 30.9059 29.1034 30.4109 29.1675C29.9149 29.2323 29.0613 30.1288 28.16 30.1801C27.2587 30.2314 26.6998 30.2941 26.5447 30.5708C26.3896 30.8475 26.6934 31.0381 26.8329 31.0841Z" fill="#FFB41A"/>
<path d="M20.5453 27.1581C20.5453 27.1581 20.5336 29.2576 20.6373 29.9716C20.7411 30.6856 21.7842 31.6044 22.652 31.6825C23.5198 31.7605 25.2006 30.8601 25.5149 29.5177C25.8303 28.1746 24.7558 28.1279 23.5129 27.9993C22.27 27.8707 21.6653 26.0381 21.1305 26.0303C20.5956 26.0226 20.5436 27.1578 20.5436 27.1578L20.5453 27.1581Z" fill="#FFDF82"/>
</svg>
